<svg version="1.1" id="Layer_1" xmlns="http://www.w3.org/2000/svg" xmlns:xlink="http://www.w3.org/1999/xlink" x="0px" y="0px"
	 width="100%" viewBox="0 0 589 580" enable-background="new 0 0 589 580" xml:space="preserve">
<path fill="#0A6A2F" opacity="1.000000" stroke="none" 
	d="
M339.000000,581.000000 
	C226.000000,581.000000 113.500000,581.000000 1.000000,581.000000 
	C1.000000,387.666656 1.000000,194.333328 1.000000,1.000000 
	C197.333328,1.000000 393.666656,1.000000 590.000000,1.000000 
	C590.000000,194.333328 590.000000,387.666656 590.000000,581.000000 
	C506.500000,581.000000 423.000000,581.000000 339.000000,581.000000 
M93.754738,383.502106 
	C93.754738,421.950989 93.754738,460.399872 93.754738,498.953278 
	C224.131378,498.953278 354.033966,498.953278 484.122009,498.953278 
	C484.169128,497.886902 484.235962,497.078735 484.236084,496.270599 
	C484.241669,454.104126 484.241791,411.937683 484.240814,369.771210 
	C484.240784,368.938141 484.528076,367.895599 484.136719,367.322968 
	C483.601379,366.539673 482.543365,366.113617 480.893555,364.967804 
	C480.893555,409.126404 480.893555,452.060242 480.893555,495.106659 
	C352.792969,495.106659 225.083389,495.106659 96.975212,495.106659 
	C96.975212,451.865601 96.975212,408.935394 96.975212,366.005188 
	C96.503403,365.808624 96.031601,365.612061 95.559792,365.415497 
	C94.959518,366.445007 93.883850,367.455078 93.840912,368.507324 
	C93.650764,373.166229 93.757301,377.837250 93.754738,383.502106 
M231.499756,110.580421 
	C314.553650,110.580421 397.607544,110.580421 481.050110,110.580421 
	C481.050110,154.178146 481.050110,197.097794 481.050110,240.024429 
	C485.874817,240.657333 484.167114,237.215210 484.170990,235.469498 
	C484.262695,193.981323 484.242249,152.492920 484.242249,111.004547 
	C484.242249,109.720062 484.242218,108.435570 484.242218,107.002502 
	C353.899200,107.002502 224.022217,107.002502 93.888893,107.002502 
	C93.838715,108.017998 93.764870,108.816292 93.764748,109.614609 
	C93.758492,151.769470 93.758224,193.924332 93.759598,236.079193 
	C93.759628,236.911987 93.481232,237.956024 93.875534,238.526047 
	C94.412308,239.302002 95.472260,239.716049 97.156830,240.863647 
	C97.156830,196.711609 97.156830,153.786346 97.156830,110.580353 
	C141.890778,110.580353 186.195267,110.580353 231.499756,110.580421 
M285.365723,267.356934 
	C284.195282,266.281219 283.024811,265.205505 281.854370,264.129761 
	C282.135559,264.642944 282.416748,265.156097 282.697937,265.669250 
	C275.524689,272.067963 268.351440,278.466644 261.644867,284.449066 
	C264.076965,287.329041 266.074829,289.694794 267.868225,291.818451 
	C272.807190,287.188812 277.385101,282.897552 282.171906,278.410522 
	C284.299286,280.385040 286.555817,282.479431 288.712341,284.480988 
	C289.332001,284.190735 289.694855,284.120758 289.912109,283.904480 
	C297.101257,276.747253 304.278015,269.577545 311.453217,262.406311 
	C317.131836,256.730835 317.130768,256.727905 311.202026,251.069046 
	C310.970032,250.847610 310.686615,250.680038 310.427155,250.487381 
	C309.992554,250.050873 309.557922,249.614365 309.123291,249.177856 
	C302.783569,256.623474 296.443817,264.069092 289.970734,271.671326 
	C287.767578,269.624359 286.821747,268.745575 285.365723,267.356934 
M320.897034,334.049805 
	C321.269684,332.269470 321.873962,330.502014 321.973877,328.706512 
	C322.353027,321.892090 319.758118,317.289459 314.252472,316.681885 
	C308.431030,316.039429 302.483704,316.537689 296.578888,316.537689 
	C296.578888,329.579773 296.578888,342.285065 296.578888,355.017151 
	C298.645721,355.017151 300.371582,355.017151 302.538025,355.017151 
	C302.538025,349.759430 302.538025,344.839813 302.538025,340.109894 
	C307.444458,338.179688 310.124512,339.700287 311.496307,344.242584 
	C312.210175,346.606323 313.721710,348.745026 314.319885,351.124451 
	C315.473877,355.714874 318.312134,356.029877 322.502502,354.820068 
	C320.160858,349.538239 317.915558,344.473724 315.937683,340.012451 
	C317.749329,337.968933 319.165588,336.371399 320.897034,334.049805 
M467.323914,339.342041 
	C470.081818,338.818665 471.635468,340.039551 472.554535,342.620026 
	C473.611298,345.587036 475.132751,348.396729 476.080902,351.392303 
	C477.494324,355.857819 480.318878,356.035400 484.244507,354.750488 
	C481.844910,349.344025 479.594788,344.274261 477.300995,339.106110 
	C478.175812,338.602081 478.785370,338.341370 479.289642,337.946289 
	C484.010315,334.247528 484.331482,329.256836 483.242584,323.941376 
	C482.401459,319.835388 480.090668,316.734283 475.721985,316.472260 
	C469.975342,316.127594 464.192413,316.387634 458.318542,316.387634 
	C458.318542,329.508759 458.318542,342.240570 458.318542,355.052551 
	C460.348541,355.052551 462.103882,355.052551 464.097412,355.052551 
	C464.097412,350.781006 463.924744,346.779510 464.202209,342.809418 
	C464.285889,341.612305 465.619629,340.502563 467.323914,339.342041 
M152.336349,340.934113 
	C152.515976,341.743530 152.722260,342.548065 152.871078,343.363129 
	C154.344955,351.434784 159.339172,355.918518 166.985306,356.022003 
	C174.860672,356.128571 180.343460,352.065247 181.586212,343.980408 
	C182.405945,338.647461 182.435608,333.011353 181.701614,327.664398 
	C180.634140,319.888306 175.335892,315.917114 167.561676,315.817474 
	C159.573975,315.715088 154.674652,319.288574 153.088043,327.196289 
	C152.250000,331.373199 152.458328,335.760071 152.336349,340.934113 
M221.867752,354.331268 
	C223.728043,354.698975 225.588318,355.066650 227.577530,355.459808 
	C228.141983,348.533508 225.932175,341.828766 232.807098,337.512970 
	C235.387161,342.004028 238.363953,346.409119 240.531265,351.181854 
	C242.601303,355.740356 245.525406,356.132507 249.657288,354.702728 
	C245.881546,348.310944 242.440506,342.033081 238.526382,336.065491 
	C236.773285,333.392700 237.319824,331.767639 239.084732,329.564423 
	C242.420853,325.399902 245.469711,321.005280 248.755310,316.546997 
	C243.953125,315.274170 241.308762,316.820007 239.059738,320.460144 
	C235.834061,325.681061 232.003113,330.527985 228.430573,335.534576 
	C228.094513,335.380951 227.758453,335.227295 227.422394,335.073669 
	C227.422394,328.848206 227.422394,322.622742 227.422394,316.360962 
	C225.402924,316.360962 223.785355,316.360962 221.812180,316.360962 
	C221.812180,328.891693 221.812180,341.202362 221.867752,354.331268 
M411.601318,347.981354 
	C416.249420,356.240936 416.249420,356.240936 422.368835,354.469208 
	C418.789673,348.427185 415.397644,342.345245 411.632050,336.504150 
	C409.916718,333.843292 409.916260,331.934753 411.933838,329.487610 
	C415.266113,325.445984 418.275604,321.138275 421.593628,316.712585 
	C417.045441,315.246033 414.470795,316.404877 412.262085,319.896301 
	C408.855743,325.280823 404.928833,330.336029 400.392212,336.695099 
	C400.392212,328.953064 400.392212,322.739258 400.392212,316.409973 
	C398.311462,316.409973 396.578644,316.409973 394.691833,316.409973 
	C394.691833,329.447845 394.691833,342.185791 394.691833,355.059265 
	C396.717377,355.059265 398.454010,355.059265 400.591888,355.059265 
	C400.591888,351.622162 400.057434,348.369110 400.745117,345.399048 
	C401.407288,342.539154 403.332764,339.971802 405.081238,336.532288 
	C407.605713,341.003235 409.401611,344.183868 411.601318,347.981354 
M350.324768,351.141846 
	C350.755066,352.502594 351.185364,353.863373 351.583435,355.122192 
	C353.585205,355.122192 355.204620,355.122192 357.501495,355.122192 
	C353.543488,341.942963 349.700592,329.147003 345.882507,316.433716 
	C338.428284,315.781921 338.427704,315.781738 336.375519,322.232483 
	C336.174011,322.865784 335.980011,323.501587 335.790131,324.138489 
	C332.736969,334.379425 329.685059,344.620697 326.582397,355.031097 
	C328.965332,355.031097 330.720306,355.031097 332.383270,355.031097 
	C335.387329,344.542542 335.416748,344.941589 342.648804,344.408600 
	C347.541260,344.048096 349.614532,345.860138 350.324768,351.141846 
M434.851349,332.819031 
	C434.474640,329.135620 434.097900,325.452240 433.660858,321.179077 
	C439.791534,321.179077 445.182495,321.179077 450.862183,321.179077 
	C450.751587,319.229492 450.672363,317.832520 450.594391,316.458038 
	C442.946442,316.458038 435.699066,316.458038 428.311615,316.458038 
	C428.311615,329.499237 428.311615,342.228851 428.311615,355.114044 
	C435.851501,355.114044 443.134338,355.114044 450.522827,355.114044 
	C450.522827,353.364105 450.522827,351.831177 450.522827,349.947754 
	C444.935181,349.947754 439.664276,349.947754 434.251190,349.947754 
	C434.251190,345.853485 434.251190,342.118927 434.251190,337.971771 
	C439.230774,337.971771 443.990143,337.971771 448.874146,337.971771 
	C448.874146,336.149719 448.874146,334.744171 448.874146,332.900818 
	C444.384308,332.900818 440.090607,332.900818 434.851349,332.819031 
M103.540268,315.974731 
	C96.811646,318.031738 94.807693,320.392090 94.796593,326.273529 
	C94.785202,332.311615 96.777222,334.907990 103.145264,337.016113 
	C104.871918,337.587738 106.653801,337.991577 108.407143,338.483765 
	C112.137573,339.530945 114.017563,341.756012 113.297394,345.829895 
	C112.586983,349.848663 109.594177,351.166199 106.351585,350.590546 
	C103.137230,350.019867 100.155029,348.141510 96.621590,346.646545 
	C96.023193,347.302216 94.954208,348.473541 93.925301,349.600922 
	C98.640350,355.587250 105.740150,357.620056 112.331902,355.085266 
	C117.415825,353.130280 119.652481,349.629974 119.527267,343.824585 
	C119.408600,338.322418 117.205986,335.347595 111.832726,333.585693 
	C109.312401,332.759247 106.391747,332.577545 104.319626,331.141205 
	C102.638741,329.976105 100.865639,327.203613 101.138054,325.456604 
	C101.403748,323.752716 104.216019,321.220856 105.903091,321.226440 
	C109.110703,321.237030 112.313179,322.798309 116.323517,323.946289 
	C116.585014,323.701263 117.759758,322.600494 118.974518,321.462219 
	C115.350983,315.739960 109.966888,315.499176 103.540268,315.974731 
M194.350922,338.376160 
	C194.557739,334.727295 194.105606,330.865814 195.191574,327.500641 
	C195.980789,325.055023 198.488892,322.153198 200.808395,321.496948 
	C203.122177,320.842316 206.239548,322.530365 208.829163,323.611572 
	C209.766357,324.002838 210.195435,325.611206 210.954697,326.820801 
	C212.626602,325.824005 213.982117,325.015839 215.289413,324.236420 
	C212.475967,317.639130 209.579193,315.796875 202.474564,315.824677 
	C196.043152,315.849854 192.017212,318.365356 189.871765,324.345795 
	C187.144501,331.948151 187.134064,339.713226 189.901474,347.316681 
	C192.006973,353.101501 196.830811,356.091125 203.090805,355.986847 
	C209.372833,355.882202 212.862793,353.357635 215.365906,346.924652 
	C214.048920,346.125977 212.692520,345.303406 211.107635,344.342285 
	C210.550476,345.356476 210.206451,346.073822 209.781921,346.739868 
	C207.791031,349.863556 204.989105,351.293549 201.299850,350.507324 
	C197.675766,349.734924 195.524231,347.440247 194.920685,343.769623 
	C194.678482,342.296692 194.539688,340.806732 194.350922,338.376160 
M369.756195,316.804565 
	C367.542664,318.927948 364.423798,320.653961 363.284790,323.248962 
	C359.825256,331.130676 359.729553,339.446106 362.856049,347.525665 
	C365.128937,353.399353 369.584961,356.084503 375.613892,356.018555 
	C381.731842,355.951630 385.933624,353.178619 388.346161,347.245331 
	C386.925049,346.253571 385.628937,345.349091 383.874939,344.125031 
	C383.535278,344.739899 383.264008,345.157715 383.062744,345.606873 
	C381.368073,349.387848 378.606689,351.336395 374.359192,350.540619 
	C369.929138,349.710571 367.750122,346.649963 367.566559,342.464111 
	C367.349365,337.511688 367.290192,332.480682 367.925018,327.582550 
	C368.568542,322.617401 373.283234,319.602997 377.847839,321.216644 
	C380.217743,322.054474 382.019928,324.498199 384.364868,326.455383 
	C385.349915,325.874329 386.722626,325.064606 388.054810,324.278809 
	C384.681458,316.307037 380.739655,314.607178 369.756195,316.804565 
M362.499847,304.278595 
	C401.805450,304.278534 441.111053,304.293823 480.416504,304.214203 
	C481.783752,304.211426 483.149139,303.261414 484.515381,302.752930 
	C483.298248,302.098419 482.082245,300.873901 480.863831,300.871521 
	C431.732056,300.775330 382.600006,300.778961 333.468170,300.853027 
	C332.283539,300.854828 331.100372,301.800110 329.916504,302.305328 
	C331.117523,302.962921 332.309204,304.170044 333.521088,304.190704 
	C342.845123,304.349670 352.173065,304.278442 362.499847,304.278595 
M477.347565,297.028107 
	C479.744354,296.360992 483.109161,298.569458 485.179382,294.285919 
	C482.991852,294.162659 481.547638,294.010437 480.103333,294.010071 
	C431.489136,293.997711 382.874969,293.999786 334.260773,293.999939 
	C333.594818,293.999939 332.842804,293.804626 332.282959,294.048859 
	C331.425018,294.423218 330.699493,295.101013 329.917755,295.650024 
	C330.626068,296.107758 331.284973,296.809357 332.054443,296.965393 
	C333.174133,297.192413 334.373535,297.027893 335.538940,297.027893 
	C382.488251,297.028137 429.437531,297.028107 477.347565,297.028107 
M211.500107,300.789093 
	C173.525757,300.788208 135.551392,300.771484 97.577209,300.850433 
	C96.211464,300.853271 94.847679,301.799438 93.482964,302.305969 
	C94.699646,302.965851 95.915230,304.200378 97.133186,304.202728 
	C146.266495,304.297241 195.400024,304.291168 244.533401,304.214050 
	C245.717270,304.212219 246.899643,303.259308 248.082703,302.750000 
	C246.881317,302.096527 245.687607,300.892639 244.477325,300.875763 
	C233.819931,300.726898 223.159592,300.789246 211.500107,300.789093 
M217.500000,297.028107 
	C225.989792,297.028107 234.480789,297.102997 242.968338,296.965332 
	C244.679993,296.937561 246.378555,296.104065 248.083145,295.641998 
	C246.466248,295.094635 244.850174,294.071777 243.232315,294.068939 
	C194.957275,293.983917 146.682053,293.999847 98.406860,293.999847 
	C96.802269,293.999847 95.197685,293.999847 93.593094,293.999847 
	C93.484627,294.697571 93.376160,295.395325 93.267693,296.093048 
	C94.892647,296.404724 96.517265,296.986450 98.142616,296.988525 
	C137.595032,297.039215 177.047516,297.028107 217.500000,297.028107 
M146.920563,321.335266 
	C147.838058,319.937012 148.755554,318.538757 150.095856,316.496155 
	C139.936646,316.496155 131.233185,316.496155 122.194908,316.496155 
	C122.360512,318.278748 122.489845,319.670837 122.675575,321.670044 
	C126.218582,321.670044 129.426331,321.670044 132.953400,321.670044 
	C132.953400,333.239471 132.953400,344.166595 132.953400,355.028809 
	C135.068314,355.028809 136.826797,355.028809 139.073761,355.028809 
	C139.073761,343.673401 139.073761,332.636261 139.073761,321.342102 
	C141.714996,321.342102 143.865585,321.342102 146.920563,321.335266 
M274.390137,342.481018 
	C274.390137,346.600616 274.390137,350.720215 274.390137,354.964417 
	C276.705688,354.964417 278.560333,354.964417 280.849426,354.964417 
	C280.849426,343.625122 280.849426,332.707916 280.849426,321.359985 
	C284.390076,321.359985 287.495483,321.359985 291.008667,321.359985 
	C290.894165,319.356323 290.806396,317.820282 290.722076,316.344971 
	C281.652222,316.344971 273.052155,316.344971 264.037506,316.344971 
	C264.123077,318.141571 264.195465,319.661285 264.289581,321.637238 
	C267.830780,321.637238 270.915283,321.637238 274.390198,321.637238 
	C274.390198,328.571045 274.390198,335.029602 274.390137,342.481018 
M310.405121,305.977692 
	C312.513397,305.977692 314.621674,305.977692 316.704163,305.977692 
	C316.704163,303.369629 316.704163,301.310913 316.704163,299.263611 
	C298.027008,299.263611 279.645630,299.263611 261.301331,299.263611 
	C261.301331,301.605133 261.301331,303.662598 261.301331,305.977692 
	C277.541443,305.977692 293.483063,305.977692 310.405121,305.977692 
z"/>
<path fill="#EBF3EE" opacity="1.000000" stroke="none" 
	d="
M93.755600,383.002991 
	C93.757301,377.837250 93.650764,373.166229 93.840912,368.507324 
	C93.883850,367.455078 94.959518,366.445007 95.559792,365.415497 
	C96.031601,365.612061 96.503403,365.808624 96.975212,366.005188 
	C96.975212,408.935394 96.975212,451.865601 96.975212,495.106659 
	C225.083389,495.106659 352.792969,495.106659 480.893555,495.106659 
	C480.893555,452.060242 480.893555,409.126404 480.893555,364.967804 
	C482.543365,366.113617 483.601379,366.539673 484.136719,367.322968 
	C484.528076,367.895599 484.240784,368.938141 484.240814,369.771210 
	C484.241791,411.937683 484.241669,454.104126 484.236084,496.270599 
	C484.235962,497.078735 484.169128,497.886902 484.122009,498.953278 
	C354.033966,498.953278 224.131378,498.953278 93.754738,498.953278 
	C93.754738,460.399872 93.754738,421.950989 93.755600,383.002991 
z"/>
<path fill="#EBF3EE" opacity="1.000000" stroke="none" 
	d="
M230.999756,110.580383 
	C186.195267,110.580353 141.890778,110.580353 97.156830,110.580353 
	C97.156830,153.786346 97.156830,196.711609 97.156830,240.863647 
	C95.472260,239.716049 94.412308,239.302002 93.875534,238.526047 
	C93.481232,237.956024 93.759628,236.911987 93.759598,236.079193 
	C93.758224,193.924332 93.758492,151.769470 93.764748,109.614609 
	C93.764870,108.816292 93.838715,108.017998 93.888893,107.002502 
	C224.022217,107.002502 353.899200,107.002502 484.242218,107.002502 
	C484.242218,108.435570 484.242249,109.720062 484.242249,111.004547 
	C484.242249,152.492920 484.262695,193.981323 484.170990,235.469498 
	C484.167114,237.215210 485.874817,240.657333 481.050110,240.024429 
	C481.050110,197.097794 481.050110,154.178146 481.050110,110.580421 
	C397.607544,110.580421 314.553650,110.580421 230.999756,110.580383 
z"/>
<path fill="#FCFDFC" opacity="1.000000" stroke="none" 
	d="
M285.620819,267.611877 
	C286.821747,268.745575 287.767578,269.624359 289.970734,271.671326 
	C296.443817,264.069092 302.783569,256.623474 309.123291,249.177856 
	C309.557922,249.614365 309.992554,250.050873 310.427155,250.487381 
	C310.686615,250.680038 310.970032,250.847610 311.202026,251.069046 
	C317.130768,256.727905 317.131836,256.730835 311.453217,262.406311 
	C304.278015,269.577545 297.101257,276.747253 289.912109,283.904480 
	C289.694855,284.120758 289.332001,284.190735 288.712341,284.480988 
	C286.555817,282.479431 284.299286,280.385040 282.171906,278.410522 
	C277.385101,282.897552 272.807190,287.188812 267.868225,291.818451 
	C266.074829,289.694794 264.076965,287.329041 261.644867,284.449066 
	C268.351440,278.466644 275.524689,272.067963 282.697937,265.669250 
	C282.416748,265.156097 282.135559,264.642944 281.854370,264.129761 
	C283.024811,265.205505 284.195282,266.281219 285.620819,267.611877 
z"/>
<path fill="#F0F6F3" opacity="1.000000" stroke="none" 
	d="
M320.739441,334.411804 
	C319.165588,336.371399 317.749329,337.968933 315.937683,340.012451 
	C317.915558,344.473724 320.160858,349.538239 322.502502,354.820068 
	C318.312134,356.029877 315.473877,355.714874 314.319885,351.124451 
	C313.721710,348.745026 312.210175,346.606323 311.496307,344.242584 
	C310.124512,339.700287 307.444458,338.179688 302.538025,340.109894 
	C302.538025,344.839813 302.538025,349.759430 302.538025,355.017151 
	C300.371582,355.017151 298.645721,355.017151 296.578888,355.017151 
	C296.578888,342.285065 296.578888,329.579773 296.578888,316.537689 
	C302.483704,316.537689 308.431030,316.039429 314.252472,316.681885 
	C319.758118,317.289459 322.353027,321.892090 321.973877,328.706512 
	C321.873962,330.502014 321.269684,332.269470 320.739441,334.411804 
M302.906494,333.899902 
	C305.688019,334.028290 308.511017,334.490265 311.234558,334.151917 
	C312.715454,333.967926 314.741058,332.729462 315.293274,331.440613 
	C317.830139,325.519592 314.964355,321.376373 308.624481,321.298126 
	C306.698486,321.274353 304.771912,321.294403 302.415039,321.294403 
	C302.415039,325.622528 302.415039,329.369812 302.906494,333.899902 
z"/>
<path fill="#F4F8F5" opacity="1.000000" stroke="none" 
	d="
M466.852325,339.347412 
	C465.619629,340.502563 464.285889,341.612305 464.202209,342.809418 
	C463.924744,346.779510 464.097412,350.781006 464.097412,355.052551 
	C462.103882,355.052551 460.348541,355.052551 458.318542,355.052551 
	C458.318542,342.240570 458.318542,329.508759 458.318542,316.387634 
	C464.192413,316.387634 469.975342,316.127594 475.721985,316.472260 
	C480.090668,316.734283 482.401459,319.835388 483.242584,323.941376 
	C484.331482,329.256836 484.010315,334.247528 479.289642,337.946289 
	C478.785370,338.341370 478.175812,338.602081 477.300995,339.106110 
	C479.594788,344.274261 481.844910,349.344025 484.244507,354.750488 
	C480.318878,356.035400 477.494324,355.857819 476.080902,351.392303 
	C475.132751,348.396729 473.611298,345.587036 472.554535,342.620026 
	C471.635468,340.039551 470.081818,338.818665 466.852325,339.347412 
M464.077484,324.820312 
	C464.077484,327.906097 464.077484,330.991882 464.077484,334.295197 
	C466.534607,334.295197 468.348663,334.307037 470.162476,334.293060 
	C476.869049,334.241272 478.990356,331.636780 477.046295,324.994049 
	C476.601837,323.475403 473.964935,321.340424 472.717194,321.568542 
	C469.841766,322.094208 465.585236,318.515259 464.077484,324.820312 
z"/>
<path fill="#F0F6F3" opacity="1.000000" stroke="none" 
	d="
M152.265289,340.493103 
	C152.458328,335.760071 152.250000,331.373199 153.088043,327.196289 
	C154.674652,319.288574 159.573975,315.715088 167.561676,315.817474 
	C175.335892,315.917114 180.634140,319.888306 181.701614,327.664398 
	C182.435608,333.011353 182.405945,338.647461 181.586212,343.980408 
	C180.343460,352.065247 174.860672,356.128571 166.985306,356.022003 
	C159.339172,355.918518 154.344955,351.434784 152.871078,343.363129 
	C152.722260,342.548065 152.515976,341.743530 152.265289,340.493103 
M170.822540,349.997742 
	C172.402084,348.176208 175.126816,346.481079 175.344513,344.509186 
	C175.974640,338.801483 176.152710,332.912384 175.435822,327.229767 
	C174.878983,322.815674 171.194168,320.762726 166.631943,320.970581 
	C162.126541,321.175842 159.493256,323.785614 159.080078,328.034668 
	C158.634201,332.619781 158.588837,337.294403 158.912033,341.891754 
	C159.390503,348.697601 163.038422,351.244690 170.822540,349.997742 
z"/>
<path fill="#F3F8F5" opacity="1.000000" stroke="none" 
	d="
M221.839966,353.922150 
	C221.812180,341.202362 221.812180,328.891693 221.812180,316.360962 
	C223.785355,316.360962 225.402924,316.360962 227.422394,316.360962 
	C227.422394,322.622742 227.422394,328.848206 227.422394,335.073669 
	C227.758453,335.227295 228.094513,335.380951 228.430573,335.534576 
	C232.003113,330.527985 235.834061,325.681061 239.059738,320.460144 
	C241.308762,316.820007 243.953125,315.274170 248.755310,316.546997 
	C245.469711,321.005280 242.420853,325.399902 239.084732,329.564423 
	C237.319824,331.767639 236.773285,333.392700 238.526382,336.065491 
	C242.440506,342.033081 245.881546,348.310944 249.657288,354.702728 
	C245.525406,356.132507 242.601303,355.740356 240.531265,351.181854 
	C238.363953,346.409119 235.387161,342.004028 232.807098,337.512970 
	C225.932175,341.828766 228.141983,348.533508 227.577530,355.459808 
	C225.588318,355.066650 223.728043,354.698975 221.839966,353.922150 
z"/>
<path fill="#E9F2EC" opacity="1.000000" stroke="none" 
	d="
M411.399414,347.672913 
	C409.401611,344.183868 407.605713,341.003235 405.081238,336.532288 
	C403.332764,339.971802 401.407288,342.539154 400.745117,345.399048 
	C400.057434,348.369110 400.591888,351.622162 400.591888,355.059265 
	C398.454010,355.059265 396.717377,355.059265 394.691833,355.059265 
	C394.691833,342.185791 394.691833,329.447845 394.691833,316.409973 
	C396.578644,316.409973 398.311462,316.409973 400.392212,316.409973 
	C400.392212,322.739258 400.392212,328.953064 400.392212,336.695099 
	C404.928833,330.336029 408.855743,325.280823 412.262085,319.896301 
	C414.470795,316.404877 417.045441,315.246033 421.593628,316.712585 
	C418.275604,321.138275 415.266113,325.445984 411.933838,329.487610 
	C409.916260,331.934753 409.916718,333.843292 411.632050,336.504150 
	C415.397644,342.345245 418.789673,348.427185 422.368835,354.469208 
	C416.249420,356.240936 416.249420,356.240936 411.399414,347.672913 
z"/>
<path fill="#F3F8F5" opacity="1.000000" stroke="none" 
	d="
M350.213745,350.746399 
	C349.614532,345.860138 347.541260,344.048096 342.648804,344.408600 
	C335.416748,344.941589 335.387329,344.542542 332.383270,355.031097 
	C330.720306,355.031097 328.965332,355.031097 326.582397,355.031097 
	C329.685059,344.620697 332.736969,334.379425 335.790131,324.138489 
	C335.980011,323.501587 336.174011,322.865784 336.375519,322.232483 
	C338.427704,315.781738 338.428284,315.781921 345.882507,316.433716 
	C349.700592,329.147003 353.543488,341.942963 357.501495,355.122192 
	C355.204620,355.122192 353.585205,355.122192 351.583435,355.122192 
	C351.185364,353.863373 350.755066,352.502594 350.213745,350.746399 
M338.930237,332.357483 
	C338.262390,334.658447 337.594574,336.959381 336.889130,339.389832 
	C340.573090,339.389832 343.614777,339.389832 347.003357,339.389832 
	C345.308655,333.437256 343.727966,327.885040 341.804565,321.129181 
	C340.651520,325.509949 339.855530,328.534119 338.930237,332.357483 
z"/>
<path fill="#F7FAF8" opacity="1.000000" stroke="none" 
	d="
M435.324097,332.859924 
	C440.090607,332.900818 444.384308,332.900818 448.874146,332.900818 
	C448.874146,334.744171 448.874146,336.149719 448.874146,337.971771 
	C443.990143,337.971771 439.230774,337.971771 434.251190,337.971771 
	C434.251190,342.118927 434.251190,345.853485 434.251190,349.947754 
	C439.664276,349.947754 444.935181,349.947754 450.522827,349.947754 
	C450.522827,351.831177 450.522827,353.364105 450.522827,355.114044 
	C443.134338,355.114044 435.851501,355.114044 428.311615,355.114044 
	C428.311615,342.228851 428.311615,329.499237 428.311615,316.458038 
	C435.699066,316.458038 442.946442,316.458038 450.594391,316.458038 
	C450.672363,317.832520 450.751587,319.229492 450.862183,321.179077 
	C445.182495,321.179077 439.791534,321.179077 433.660858,321.179077 
	C434.097900,325.452240 434.474640,329.135620 435.324097,332.859924 
z"/>
<path fill="#F0F6F3" opacity="1.000000" stroke="none" 
	d="
M103.933937,315.959778 
	C109.966888,315.499176 115.350983,315.739960 118.974518,321.462219 
	C117.759758,322.600494 116.585014,323.701263 116.323517,323.946289 
	C112.313179,322.798309 109.110703,321.237030 105.903091,321.226440 
	C104.216019,321.220856 101.403748,323.752716 101.138054,325.456604 
	C100.865639,327.203613 102.638741,329.976105 104.319626,331.141205 
	C106.391747,332.577545 109.312401,332.759247 111.832726,333.585693 
	C117.205986,335.347595 119.408600,338.322418 119.527267,343.824585 
	C119.652481,349.629974 117.415825,353.130280 112.331902,355.085266 
	C105.740150,357.620056 98.640350,355.587250 93.925301,349.600922 
	C94.954208,348.473541 96.023193,347.302216 96.621590,346.646545 
	C100.155029,348.141510 103.137230,350.019867 106.351585,350.590546 
	C109.594177,351.166199 112.586983,349.848663 113.297394,345.829895 
	C114.017563,341.756012 112.137573,339.530945 108.407143,338.483765 
	C106.653801,337.991577 104.871918,337.587738 103.145264,337.016113 
	C96.777222,334.907990 94.785202,332.311615 94.796593,326.273529 
	C94.807693,320.392090 96.811646,318.031738 103.933937,315.959778 
z"/>
<path fill="#F0F6F3" opacity="1.000000" stroke="none" 
	d="
M194.352386,338.850342 
	C194.539688,340.806732 194.678482,342.296692 194.920685,343.769623 
	C195.524231,347.440247 197.675766,349.734924 201.299850,350.507324 
	C204.989105,351.293549 207.791031,349.863556 209.781921,346.739868 
	C210.206451,346.073822 210.550476,345.356476 211.107635,344.342285 
	C212.692520,345.303406 214.048920,346.125977 215.365906,346.924652 
	C212.862793,353.357635 209.372833,355.882202 203.090805,355.986847 
	C196.830811,356.091125 192.006973,353.101501 189.901474,347.316681 
	C187.134064,339.713226 187.144501,331.948151 189.871765,324.345795 
	C192.017212,318.365356 196.043152,315.849854 202.474564,315.824677 
	C209.579193,315.796875 212.475967,317.639130 215.289413,324.236420 
	C213.982117,325.015839 212.626602,325.824005 210.954697,326.820801 
	C210.195435,325.611206 209.766357,324.002838 208.829163,323.611572 
	C206.239548,322.530365 203.122177,320.842316 200.808395,321.496948 
	C198.488892,322.153198 195.980789,325.055023 195.191574,327.500641 
	C194.105606,330.865814 194.557739,334.727295 194.352386,338.850342 
z"/>
<path fill="#F3F8F5" opacity="1.000000" stroke="none" 
	d="
M370.130402,316.629150 
	C380.739655,314.607178 384.681458,316.307037 388.054810,324.278809 
	C386.722626,325.064606 385.349915,325.874329 384.364868,326.455383 
	C382.019928,324.498199 380.217743,322.054474 377.847839,321.216644 
	C373.283234,319.602997 368.568542,322.617401 367.925018,327.582550 
	C367.290192,332.480682 367.349365,337.511688 367.566559,342.464111 
	C367.750122,346.649963 369.929138,349.710571 374.359192,350.540619 
	C378.606689,351.336395 381.368073,349.387848 383.062744,345.606873 
	C383.264008,345.157715 383.535278,344.739899 383.874939,344.125031 
	C385.628937,345.349091 386.925049,346.253571 388.346161,347.245331 
	C385.933624,353.178619 381.731842,355.951630 375.613892,356.018555 
	C369.584961,356.084503 365.128937,353.399353 362.856049,347.525665 
	C359.729553,339.446106 359.825256,331.130676 363.284790,323.248962 
	C364.423798,320.653961 367.542664,318.927948 370.130402,316.629150 
z"/>
<path fill="#FEFFFE" opacity="1.000000" stroke="none" 
	d="
M361.999817,304.278625 
	C352.173065,304.278442 342.845123,304.349670 333.521088,304.190704 
	C332.309204,304.170044 331.117523,302.962921 329.916504,302.305328 
	C331.100372,301.800110 332.283539,300.854828 333.468170,300.853027 
	C382.600006,300.778961 431.732056,300.775330 480.863831,300.871521 
	C482.082245,300.873901 483.298248,302.098419 484.515381,302.752930 
	C483.149139,303.261414 481.783752,304.211426 480.416504,304.214203 
	C441.111053,304.293823 401.805450,304.278534 361.999817,304.278625 
z"/>
<path fill="#FEFFFE" opacity="1.000000" stroke="none" 
	d="
M476.867188,297.028107 
	C429.437531,297.028107 382.488251,297.028137 335.538940,297.027893 
	C334.373535,297.027893 333.174133,297.192413 332.054443,296.965393 
	C331.284973,296.809357 330.626068,296.107758 329.917755,295.650024 
	C330.699493,295.101013 331.425018,294.423218 332.282959,294.048859 
	C332.842804,293.804626 333.594818,293.999939 334.260773,293.999939 
	C382.874969,293.999786 431.489136,293.997711 480.103333,294.010071 
	C481.547638,294.010437 482.991852,294.162659 485.179382,294.285919 
	C483.109161,298.569458 479.744354,296.360992 476.867188,297.028107 
z"/>
<path fill="#FEFFFE" opacity="1.000000" stroke="none" 
	d="
M212.000122,300.789093 
	C223.159592,300.789246 233.819931,300.726898 244.477325,300.875763 
	C245.687607,300.892639 246.881317,302.096527 248.082703,302.750000 
	C246.899643,303.259308 245.717270,304.212219 244.533401,304.214050 
	C195.400024,304.291168 146.266495,304.297241 97.133186,304.202728 
	C95.915230,304.200378 94.699646,302.965851 93.482971,302.305969 
	C94.847679,301.799438 96.211464,300.853271 97.577209,300.850433 
	C135.551392,300.771484 173.525757,300.788208 212.000122,300.789093 
z"/>
<path fill="#FEFFFE" opacity="1.000000" stroke="none" 
	d="
M217.000000,297.028107 
	C177.047516,297.028107 137.595032,297.039215 98.142616,296.988525 
	C96.517265,296.986450 94.892647,296.404724 93.267693,296.093048 
	C93.376160,295.395325 93.484627,294.697571 93.593094,293.999847 
	C95.197685,293.999847 96.802269,293.999847 98.406860,293.999847 
	C146.682053,293.999847 194.957275,293.983917 243.232315,294.068939 
	C244.850174,294.071777 246.466248,295.094635 248.083145,295.642029 
	C246.378555,296.104065 244.679993,296.937561 242.968338,296.965332 
	C234.480789,297.102997 225.989792,297.028107 217.000000,297.028107 
z"/>
<path fill="#F3F8F5" opacity="1.000000" stroke="none" 
	d="
M146.468353,321.338684 
	C143.865585,321.342102 141.714996,321.342102 139.073761,321.342102 
	C139.073761,332.636261 139.073761,343.673401 139.073761,355.028809 
	C136.826797,355.028809 135.068314,355.028809 132.953400,355.028809 
	C132.953400,344.166595 132.953400,333.239471 132.953400,321.670044 
	C129.426331,321.670044 126.218582,321.670044 122.675575,321.670044 
	C122.489845,319.670837 122.360512,318.278748 122.194908,316.496155 
	C131.233185,316.496155 139.936646,316.496155 150.095856,316.496155 
	C148.755554,318.538757 147.838058,319.937012 146.468353,321.338684 
z"/>
<path fill="#E4EEE8" opacity="1.000000" stroke="none" 
	d="
M274.390167,341.984589 
	C274.390198,335.029602 274.390198,328.571045 274.390198,321.637238 
	C270.915283,321.637238 267.830780,321.637238 264.289581,321.637238 
	C264.195465,319.661285 264.123077,318.141571 264.037506,316.344971 
	C273.052155,316.344971 281.652222,316.344971 290.722076,316.344971 
	C290.806396,317.820282 290.894165,319.356323 291.008667,321.359985 
	C287.495483,321.359985 284.390076,321.359985 280.849426,321.359985 
	C280.849426,332.707916 280.849426,343.625122 280.849426,354.964417 
	C278.560333,354.964417 276.705688,354.964417 274.390137,354.964417 
	C274.390137,350.720215 274.390137,346.600616 274.390167,341.984589 
z"/>
<path fill="#FEFFFE" opacity="1.000000" stroke="none" 
	d="
M309.914917,305.977692 
	C293.483063,305.977692 277.541443,305.977692 261.301331,305.977692 
	C261.301331,303.662598 261.301331,301.605133 261.301331,299.263611 
	C279.645630,299.263611 298.027008,299.263611 316.704163,299.263611 
	C316.704163,301.310913 316.704163,303.369629 316.704163,305.977692 
	C314.621674,305.977692 312.513397,305.977692 309.914917,305.977692 
z"/>
<path fill="#1A743D" opacity="1.000000" stroke="none" 
	d="
M302.660767,333.508484 
	C302.415039,329.369812 302.415039,325.622528 302.415039,321.294403 
	C304.771912,321.294403 306.698486,321.274353 308.624481,321.298126 
	C314.964355,321.376373 317.830139,325.519592 315.293274,331.440613 
	C314.741058,332.729462 312.715454,333.967926 311.234558,334.151917 
	C308.511017,334.490265 305.688019,334.028290 302.660767,333.508484 
z"/>
<path fill="#126F36" opacity="1.000000" stroke="none" 
	d="
M464.078918,324.362976 
	C465.585236,318.515259 469.841766,322.094208 472.717194,321.568542 
	C473.964935,321.340424 476.601837,323.475403 477.046295,324.994049 
	C478.990356,331.636780 476.869049,334.241272 470.162476,334.293060 
	C468.348663,334.307037 466.534607,334.295197 464.077484,334.295197 
	C464.077484,330.991882 464.077484,327.906097 464.078918,324.362976 
z"/>
<path fill="#0C6C30" opacity="1.000000" stroke="none" 
	d="
M170.405380,350.092590 
	C163.038422,351.244690 159.390503,348.697601 158.912033,341.891754 
	C158.588837,337.294403 158.634201,332.619781 159.080078,328.034668 
	C159.493256,323.785614 162.126541,321.175842 166.631943,320.970581 
	C171.194168,320.762726 174.878983,322.815674 175.435822,327.229767 
	C176.152710,332.912384 175.974640,338.801483 175.344513,344.509186 
	C175.126816,346.481079 172.402084,348.176208 170.405380,350.092590 
z"/>
<path fill="#1A743D" opacity="1.000000" stroke="none" 
	d="
M338.994873,331.957886 
	C339.855530,328.534119 340.651520,325.509949 341.804565,321.129181 
	C343.727966,327.885040 345.308655,333.437256 347.003357,339.389832 
	C343.614777,339.389832 340.573090,339.389832 336.889130,339.389832 
	C337.594574,336.959381 338.262390,334.658447 338.994873,331.957886 
z"/>
</svg>