<svg version="1.1" id="Layer_1" xmlns="http://www.w3.org/2000/svg" xmlns:xlink="http://www.w3.org/1999/xlink" x="0px" y="0px"
	 width="100%" viewBox="0 0 327 328" enable-background="new 0 0 327 328" xml:space="preserve">
<path fill="#0B290A" opacity="1.000000" stroke="none" 
	d="
M327.686066,320.692841 
	C328.000000,329.000000 328.000000,329.000000 320.022461,329.000000 
	C216.334839,329.000000 112.647224,329.000000 8.959611,329.000000 
	C1.000000,329.000000 1.000000,329.000000 1.000000,320.491058 
	C3.163821,317.244354 6.135813,316.651123 9.449116,316.575470 
	C42.581253,315.819427 75.560638,313.108398 108.370216,308.460266 
	C116.934280,307.247009 125.473000,305.767120 133.880035,303.649567 
	C136.954483,302.875214 139.979141,301.941681 142.920090,300.772797 
	C146.063736,299.523346 149.409531,298.084106 149.726257,294.229919 
	C150.071335,290.030365 146.282349,289.011719 143.404312,287.451141 
	C126.920776,278.513214 108.653236,276.250610 90.549606,273.559021 
	C70.487343,270.576233 50.293434,268.612396 30.107294,266.669647 
	C22.979362,265.983643 15.789509,266.586975 8.631056,266.399139 
	C6.178790,266.334778 3.560040,266.713287 1.305610,264.299316 
	C1.000000,231.312439 1.000000,198.624878 1.000000,165.468658 
	C5.549719,155.936523 12.737813,149.690063 22.233486,145.510956 
	C34.168335,146.530746 46.573631,165.674728 44.277004,177.895264 
	C43.658241,181.187744 42.176811,183.754929 39.105743,185.779968 
	C37.100594,186.253220 35.782394,187.375519 34.250618,187.901794 
	C29.816364,189.425247 27.964706,192.506332 28.453957,197.019943 
	C28.761915,199.861053 26.861492,203.766357 29.686218,205.277496 
	C32.072636,206.554153 34.569946,203.309509 36.963722,202.002884 
	C38.705414,201.052216 40.526775,200.310928 42.581455,199.231537 
	C44.007759,198.106750 45.414978,197.680405 47.027695,196.890015 
	C56.924149,193.858673 61.096603,184.173721 56.417736,175.762619 
	C51.638969,167.171951 50.056767,157.819305 49.416798,148.153641 
	C48.987679,141.672516 49.099373,134.831985 42.602859,130.220642 
	C42.006996,130.012238 41.762108,129.939362 41.154449,129.723419 
	C40.572517,129.436646 40.353348,129.292938 39.641228,128.541534 
	C38.837105,127.220825 38.698284,126.457413 38.389542,125.350563 
	C37.522011,123.091888 37.438801,121.105827 37.513226,118.724266 
	C37.529957,118.097481 37.541073,117.846252 37.601799,117.219772 
	C37.845577,116.102264 38.167347,115.407654 38.597054,114.338135 
	C42.146408,108.712364 45.583382,103.541534 51.007664,99.972115 
	C56.643837,96.263260 61.271580,96.903755 64.798317,102.428665 
	C66.310516,104.797646 67.946136,107.060005 69.953964,109.528847 
	C72.419601,114.057877 74.719437,118.248116 77.451691,122.571037 
	C77.699707,123.812721 78.027267,124.668602 78.367386,125.879875 
	C78.825264,129.954269 80.627998,133.301590 81.380882,136.947189 
	C81.647804,138.239670 82.594261,139.274399 83.983345,139.722794 
	C91.010452,141.991119 99.458817,138.313263 102.947601,131.764130 
	C105.965492,126.098938 110.809814,121.449753 112.432053,114.600311 
	C112.589844,114.027992 112.656769,113.800072 112.885963,113.255219 
	C115.551636,109.616066 115.794632,106.012489 114.279190,101.844971 
	C113.917770,100.215698 114.078781,98.907372 113.867081,97.234085 
	C115.713516,93.085617 116.371880,88.983719 117.387772,85.009239 
	C117.973724,82.716858 118.939720,81.447395 121.731110,81.510460 
	C122.351646,81.500389 122.596367,81.496597 123.197952,81.484848 
	C123.786217,81.484016 124.017601,81.491127 124.588028,81.525513 
	C125.580093,81.629868 126.212914,81.811607 127.169357,81.954063 
	C129.081390,82.241417 130.137573,81.138641 131.654633,80.300682 
	C132.173187,80.121185 132.389435,80.072891 132.935776,79.983170 
	C134.794785,79.689766 136.354950,79.230515 136.141830,77.336731 
	C135.959702,75.718513 134.346512,75.541710 133.078217,75.553703 
	C130.768143,75.575546 128.548630,75.257599 126.040871,74.410950 
	C124.443726,73.612007 123.002739,73.423187 121.350632,72.708923 
	C120.809837,72.355591 120.590248,72.212326 120.081306,71.792213 
	C118.625015,70.212532 117.823029,68.803230 118.556824,66.550003 
	C118.801598,65.557297 119.071030,65.047234 119.783829,64.308228 
	C120.376183,63.893349 120.637184,63.766327 121.324142,63.565681 
	C122.913200,63.257252 123.981163,63.540012 125.304367,64.340240 
	C129.509888,67.797691 134.207855,67.403931 139.126984,67.396179 
	C140.342270,67.010284 141.250076,67.114861 142.465332,67.073463 
	C143.187439,66.967415 143.592438,66.885803 144.284271,66.705887 
	C144.956421,66.519463 145.335770,66.406586 145.983704,66.178688 
	C146.618973,65.946838 146.978607,65.808960 147.593689,65.541855 
	C148.359192,65.143814 148.812225,64.796631 149.432861,64.174995 
	C150.130142,63.593163 150.661453,63.299110 151.435257,62.795265 
	C151.900314,62.534222 152.096573,62.443447 152.605469,62.263489 
	C154.517822,61.467224 156.291824,60.892029 155.532608,58.264244 
	C152.805008,56.419704 151.983368,59.069248 150.775543,60.150578 
	C146.079758,64.354584 140.938339,66.526230 134.286285,64.536705 
	C133.560013,64.094231 133.167236,63.800789 132.504395,63.237961 
	C131.840790,62.643616 131.472610,62.287922 130.887695,61.602539 
	C128.453979,57.777248 125.579338,54.868511 122.440308,52.214611 
	C119.433044,49.672115 115.806351,48.708221 112.247597,50.168358 
	C108.343704,51.770100 105.663467,50.470100 102.970314,47.951862 
	C93.749260,39.329662 83.321289,32.429565 72.327965,26.286684 
	C57.499649,18.000885 41.709846,13.650514 24.677248,13.950294 
	C18.586483,14.057493 12.494013,14.027912 6.401568,13.944837 
	C4.625152,13.920613 2.868857,14.121446 1.285632,12.279037 
	C1.000000,8.337626 -0.427472,3.262820 1.403612,1.412239 
	C3.215426,-0.418868 8.316160,1.000566 11.974240,1.000542 
	C115.852463,0.999869 219.730743,1.028806 323.608765,0.890176 
	C327.587036,0.884867 328.179352,2.034541 328.089630,5.600645 
	C327.834320,15.748987 328.000000,25.907919 328.000000,36.531342 
	C323.240631,45.007084 315.395111,47.189175 306.924377,47.909172 
	C301.774750,48.346886 296.572052,48.154285 291.409943,48.052910 
	C284.948456,47.926018 279.491852,51.037498 273.220520,52.890747 
	C270.961151,53.743904 269.212860,53.486271 267.288757,52.073326 
	C266.770935,51.709934 266.567932,51.561581 266.072998,51.181030 
	C265.595825,50.786640 265.410583,50.624447 264.946289,50.223495 
	C264.479279,49.829021 264.291290,49.673313 263.804688,49.307480 
	C256.754852,46.073631 253.422165,46.902355 248.676193,52.676414 
	C246.810043,54.946842 244.521820,55.955650 241.386490,55.978607 
	C237.255219,56.008862 232.954239,55.252068 228.991119,57.447628 
	C227.656326,58.187092 226.388733,58.840782 225.390991,60.485218 
	C225.028809,60.973522 224.872864,61.156796 224.464447,61.586037 
	C223.395157,62.493160 222.505585,63.087307 221.954376,64.431961 
	C221.690826,64.935402 221.571808,65.133080 221.269958,65.633057 
	C220.843536,66.353149 220.543549,66.726425 219.906693,67.285431 
	C219.415146,67.645493 219.213943,67.783112 218.693680,68.098579 
	C216.792343,68.937469 215.201279,69.515617 213.124603,68.721878 
	C212.545624,68.602051 212.314728,68.556175 211.738708,68.446350 
	C206.968185,66.596169 202.524994,68.689339 198.054886,68.420982 
	C195.721680,68.280914 194.896896,71.077744 194.665604,73.298798 
	C194.342453,76.401901 194.409912,79.416573 198.720993,80.313705 
	C199.329865,80.282715 199.576355,80.265274 200.200577,80.259171 
	C200.821106,80.348671 201.063904,80.426842 201.628983,80.715797 
	C202.293427,81.307449 202.614441,81.705353 203.079056,82.463448 
	C203.359329,83.292015 203.435516,83.783417 203.476288,84.644455 
	C203.633759,87.543137 203.652222,89.974670 207.294861,90.150848 
	C210.000626,90.281715 210.958923,92.935432 211.964645,94.874458 
	C213.924484,98.652916 216.053131,102.389870 217.624924,106.326813 
	C219.104202,110.032013 219.725967,114.118080 216.235641,117.296997 
	C213.275024,119.993469 212.405136,123.285591 212.469833,127.121758 
	C212.566910,132.877808 215.235657,134.241791 220.994888,130.906494 
	C221.766983,130.018814 222.482681,129.659424 223.428711,128.914307 
	C223.998962,128.507462 224.237732,128.354874 224.872894,128.033783 
	C225.552841,127.810982 225.836395,127.756676 226.551193,127.710655 
	C229.504700,128.029800 231.925400,127.279068 234.387970,126.988747 
	C238.225891,126.536278 241.869568,126.644798 245.508804,128.444229 
	C248.701157,130.022720 252.436951,129.926514 255.887253,130.650864 
	C267.230652,133.032288 279.331207,132.136154 289.808716,138.448029 
	C293.720551,140.804596 296.398376,143.957397 297.675201,148.226562 
	C299.067444,152.881500 300.846344,157.356857 300.569672,162.524704 
	C300.362671,166.391113 300.323578,169.630066 296.435638,171.571320 
	C295.394196,172.091293 295.151703,173.493027 293.883026,174.441742 
	C286.647339,178.015884 281.151642,183.297516 275.238739,188.020309 
	C272.251068,190.406616 271.750610,193.331406 272.450531,196.857437 
	C273.566498,202.479416 277.027374,206.697556 280.640869,210.783737 
	C284.086975,214.680618 285.900360,218.994705 285.548920,224.265930 
	C285.363708,227.043732 285.188202,229.994171 288.205505,232.187866 
	C288.595062,232.646164 288.729614,232.844406 289.085938,233.316315 
	C289.937683,234.139420 290.577606,234.776215 291.499512,234.319412 
	C296.372559,231.904694 302.791840,220.699905 302.517578,215.362061 
	C302.348785,212.076431 300.238861,209.535095 299.429626,206.479782 
	C297.792999,200.300415 300.354706,197.089874 306.419312,198.668884 
	C309.561859,199.487091 312.580566,199.464767 316.065735,199.289124 
	C316.687897,199.227753 316.939606,199.231781 317.561768,199.311890 
	C320.942902,201.410233 324.380920,202.635452 327.737152,204.751724 
	C328.000000,220.354233 328.000000,235.708450 328.000000,251.531342 
	C322.845642,254.647781 317.159424,253.748398 311.726837,254.202713 
	C303.878754,254.859055 295.991577,254.796143 288.213257,256.459808 
	C285.050446,257.136292 282.258087,258.354614 279.065735,259.985168 
	C277.104218,260.282745 275.583771,260.295502 273.623566,260.341248 
	C268.133484,258.151001 262.974426,257.876556 257.670166,259.276031 
	C253.180191,260.460663 248.529388,259.977356 243.966110,260.433258 
	C241.295837,260.699982 238.658401,260.867096 235.977676,261.425323 
	C224.085678,263.901672 211.987579,265.267944 200.277313,268.795288 
	C195.272888,270.302704 189.649826,269.965088 185.856293,275.157013 
	C184.697556,276.148834 183.587067,276.342804 182.302078,277.049988 
	C177.416412,276.627136 173.658035,277.930634 170.725800,282.030090 
	C170.370239,282.493042 170.228104,282.678833 169.803192,283.071838 
	C164.834045,284.932281 164.303558,288.233398 165.474411,292.580383 
	C166.666153,297.004883 170.302292,296.175262 173.718445,296.886597 
	C193.247879,305.870880 213.794846,309.097931 234.464401,311.470490 
	C260.868408,314.501282 287.368225,316.498627 313.927032,317.755310 
	C318.413910,317.967590 323.295074,317.502289 327.686066,320.692841 
z"/>
<path fill="#5AEA09" opacity="1.000000" stroke="none" 
	d="
M1.316328,157.174103 
	C1.000000,110.312439 1.000000,63.624878 1.000000,16.468658 
	C2.062766,14.982355 3.042239,14.055747 4.764288,14.033851 
	C22.995010,13.802043 41.276535,13.359228 58.705994,19.973949 
	C74.654961,26.026804 88.522568,35.595100 101.535904,46.449257 
	C104.845818,49.209984 108.645325,51.435284 106.421135,57.423256 
	C105.567062,59.722637 106.368996,64.416969 110.246719,66.757172 
	C110.848961,67.007759 111.095238,67.094666 111.709244,67.321198 
	C113.257721,68.445229 114.547668,69.277985 116.032074,70.471786 
	C117.798019,73.375023 117.429131,76.441269 118.483101,79.552399 
	C119.016846,81.324524 118.219002,82.429886 117.601776,83.951469 
	C115.078011,86.951881 112.669548,89.567451 108.370499,86.880798 
	C104.723831,88.687828 105.043625,92.141441 105.413666,94.875114 
	C105.807793,97.786720 109.012306,95.735298 111.178314,96.592606 
	C113.941513,97.479889 113.855873,99.589233 114.187584,101.526634 
	C114.718925,104.629951 114.412300,107.776985 114.827797,111.311935 
	C114.919540,112.315155 114.870689,112.884087 114.596085,113.853539 
	C114.458305,114.261597 114.269356,114.304840 114.244904,114.211060 
	C110.456192,121.186745 105.118652,127.263329 101.546989,134.485977 
	C100.075363,137.461884 96.905876,139.028687 93.607986,139.432449 
	C90.907272,139.763107 88.130196,139.463531 85.385330,139.639297 
	C83.301903,139.772705 82.019966,138.718582 81.353600,136.703781 
	C80.626846,134.506378 79.876656,132.293701 79.452744,130.044113 
	C78.183762,123.309883 74.149673,117.833321 71.318802,111.425812 
	C71.122032,110.879799 71.055443,110.663368 70.923843,110.127647 
	C70.705643,109.000595 70.415230,108.267372 69.494942,107.549255 
	C69.119965,107.189194 68.987854,107.024216 68.724976,106.568291 
	C67.933632,104.701370 67.599373,102.993073 66.411194,101.307236 
	C62.510502,96.601982 61.898476,90.863434 60.063156,85.672081 
	C58.967022,82.571564 61.393978,79.695732 63.392029,76.820694 
	C68.650757,71.699310 74.482750,68.800713 80.156868,69.197327 
	C70.983131,70.383644 70.983131,70.383644 67.860321,68.170883 
	C66.951294,67.753532 66.321419,67.538635 65.337517,67.324402 
	C64.822853,67.117088 64.632515,67.003448 64.218590,66.650383 
	C63.458843,65.637222 63.667038,64.616501 63.018082,63.850155 
	C62.089165,66.036667 63.168270,68.055122 63.429192,70.509209 
	C63.400600,71.399254 63.245625,71.887421 62.714157,72.657593 
	C59.956894,74.337173 57.743557,76.625717 54.077995,75.127670 
	C52.715031,74.311668 52.185261,73.394547 52.003239,71.886124 
	C51.839977,70.739044 51.665379,69.957115 51.595032,69.096985 
	C51.496754,69.390450 51.550331,69.732674 51.687538,70.377678 
	C51.934811,71.349670 51.928421,72.016891 51.618271,73.012650 
	C47.490715,77.739288 47.326927,83.047806 47.928890,88.875786 
	C47.990063,89.697685 47.953808,90.165932 47.792957,90.971298 
	C47.370823,92.365974 46.871586,93.368011 46.536686,94.794594 
	C46.178600,95.792160 45.939194,96.463882 45.356659,97.372787 
	C43.764576,98.627090 42.844944,99.872879 42.110447,101.433281 
	C39.978054,105.963440 39.269981,105.978638 35.968876,102.018784 
	C35.428543,101.370628 34.683014,101.000771 33.602043,100.527443 
	C32.870682,100.158005 32.511074,99.863014 32.011021,99.224670 
	C31.593891,98.557648 31.359106,98.179558 30.932238,97.540863 
	C30.475021,96.946732 30.206169,96.614883 29.754185,96.024864 
	C29.230236,95.251869 28.966232,94.689331 28.393185,93.932137 
	C28.057816,93.486610 27.930050,93.297737 27.636082,92.800140 
	C27.279459,92.050156 27.129995,91.595192 26.921803,90.767410 
	C26.799896,90.157387 26.769743,89.909111 26.745037,89.285553 
	C27.547419,84.940964 28.583086,80.944885 25.175610,77.192368 
	C24.383608,76.439980 24.052856,75.809952 23.706249,74.797974 
	C23.229053,73.654633 23.004023,72.793343 22.749763,71.604324 
	C22.565889,69.532158 21.446114,68.141075 20.818073,66.231949 
	C20.253098,65.206253 19.668169,64.554192 19.361500,63.382614 
	C19.161156,62.871956 19.066643,62.671783 18.819702,62.173027 
	C17.399221,59.349483 16.660530,56.480709 14.180382,54.885509 
	C14.282318,54.961811 14.652696,55.195339 14.843567,55.358776 
	C15.140553,55.674648 15.246670,55.827084 15.466823,56.253975 
	C16.300394,58.948505 18.092072,60.766327 19.328930,63.312019 
	C24.200377,71.793755 24.062216,81.054001 25.298504,89.955185 
	C25.979931,94.861412 27.382425,99.238968 30.800114,103.340454 
	C31.861776,105.014114 32.151051,106.578239 32.833267,108.418190 
	C32.969322,109.338196 32.985722,109.868355 32.965271,110.789825 
	C31.496101,114.343849 30.115496,117.518303 31.462488,121.476868 
	C31.493624,122.349960 31.506834,122.849976 31.523743,123.727661 
	C31.507561,125.617981 31.443239,127.167290 30.222546,128.244919 
	C28.052357,130.160782 28.503658,132.330521 29.521687,134.978516 
	C29.722218,136.815338 29.120012,137.971252 27.791428,139.191620 
	C23.935780,140.055420 22.273245,142.722031 20.534861,145.844330 
	C19.713753,146.586304 19.044540,146.844711 17.997704,147.126785 
	C12.366357,148.019485 7.856489,149.961472 5.528919,155.668610 
	C5.240970,156.183319 5.108598,156.380493 4.699555,156.804703 
	C3.529542,157.461121 2.604490,157.610901 1.316328,157.174103 
z"/>
<path fill="#FC4D4D" opacity="1.000000" stroke="none" 
	d="
M225.058563,130.674759 
	C224.342667,131.141510 223.869736,131.559097 223.188995,132.216705 
	C222.259918,132.874725 221.640625,133.445740 220.927460,133.868927 
	C215.520676,137.077271 212.714447,135.498230 212.434952,129.137741 
	C212.414886,128.681183 212.633194,128.300171 212.488037,127.776382 
	C211.321075,123.565453 211.793381,120.283363 215.875732,117.281624 
	C219.417816,114.677147 219.365479,110.206757 217.451599,106.209648 
	C216.535461,104.296303 215.391632,102.440910 214.582047,100.511795 
	C212.240677,94.932724 209.571640,89.869148 202.652344,88.367218 
	C201.521454,86.447151 203.401703,84.810234 202.188324,82.902039 
	C201.765823,82.506104 201.560364,82.390266 201.115051,82.014328 
	C200.875214,81.754227 200.555130,81.411354 200.378387,81.257172 
	C199.677643,81.061058 199.153061,81.028404 198.238846,80.935303 
	C195.624176,79.552460 194.384964,77.671326 194.492157,74.622040 
	C194.506363,73.959595 194.512009,73.694908 194.536163,73.034073 
	C194.772873,71.293480 195.325974,70.144638 196.827911,69.200172 
	C200.376007,69.334236 203.789963,70.629036 206.475403,66.946228 
	C207.196838,66.588516 207.643066,66.502617 208.444489,66.541267 
	C210.182709,67.253250 211.538498,68.068741 213.497314,68.120911 
	C215.995972,69.486015 217.503815,68.829811 218.496338,66.272720 
	C218.578506,65.739822 218.635147,65.530792 218.885269,65.060852 
	C219.078766,64.799934 219.226471,64.650566 219.227814,64.545547 
	C219.534653,62.463711 220.618439,61.118168 222.781326,60.228554 
	C223.068466,60.042149 223.016647,60.008366 223.019608,60.039154 
	C224.145905,58.750965 225.648026,58.136906 227.615921,57.673363 
	C228.385437,57.463825 228.819626,57.336357 229.557419,57.067253 
	C230.282486,56.792347 230.697678,56.636574 231.429626,56.372742 
	C232.409164,56.026325 233.105865,56.039967 234.169250,56.002991 
	C238.505585,56.052074 242.466370,55.920563 246.823486,55.973011 
	C249.512238,56.378510 251.800629,56.673164 254.337738,55.352646 
	C256.474274,54.812328 258.313751,54.910988 260.483307,54.421127 
	C261.139313,54.255795 261.404572,54.189236 262.082703,54.074379 
	C267.301025,55.297119 271.881256,53.880814 275.952789,51.839478 
	C282.657379,48.478008 289.659607,48.013306 296.864502,48.060005 
	C304.630554,48.110348 312.414429,48.455105 319.662384,44.709442 
	C322.367065,43.311714 324.635468,41.339687 327.595886,39.883354 
	C328.000000,78.354225 328.000000,116.708458 328.000000,155.531342 
	C326.185944,157.786682 324.657288,156.298386 323.106232,155.533310 
	C313.992767,151.037918 304.828705,146.644257 295.475281,141.873276 
	C294.936890,141.702820 294.724609,141.634491 294.206787,141.450043 
	C293.718658,141.223694 293.536102,141.113495 293.108093,140.808838 
	C292.691681,140.501495 292.520721,140.388611 292.076782,140.143768 
	C291.443115,139.841339 291.092102,139.652878 290.490295,139.309402 
	C290.048065,139.097473 289.866730,139.021790 289.422791,138.809189 
	C288.992218,138.562256 288.824249,138.452240 288.133759,138.008377 
	C286.798828,137.350937 285.965027,137.080215 284.865540,136.514313 
	C280.914551,134.585358 276.918976,134.279678 273.041382,133.517776 
	C262.785980,131.502731 252.238007,131.240784 242.292419,127.252144 
	C237.078369,125.161064 231.611038,127.173149 226.263580,129.745361 
	C225.921417,129.933365 225.974014,129.973923 225.973282,129.940720 
	C225.813095,130.206879 225.589432,130.446228 225.058563,130.674759 
z"/>
<path fill="#000100" opacity="1.000000" stroke="none" 
	d="
M272.612274,258.029205 
	C274.427643,258.021362 275.807404,258.000458 277.601013,257.968506 
	C285.094269,255.534805 292.576874,255.405533 299.871826,254.767746 
	C307.575043,254.094284 315.374298,254.117096 323.122559,253.576126 
	C324.506195,253.479553 326.025055,253.345291 327.628143,254.680847 
	C328.000000,276.687561 328.000000,298.375122 328.000000,320.531342 
	C309.077393,320.119415 290.189545,318.810638 271.301849,317.304077 
	C254.391907,315.955322 237.513397,314.592712 220.724579,312.111938 
	C204.202255,309.670502 187.965607,306.284180 172.384369,299.035706 
	C169.367889,297.922760 167.200119,296.077789 165.781479,293.764557 
	C163.433472,289.936005 164.371277,286.806885 168.757568,282.329590 
	C169.056198,282.056366 169.008591,282.002441 169.035492,282.029480 
	C172.282394,278.823273 175.771561,276.054077 180.798233,275.227112 
	C181.864532,274.727295 182.633148,274.422943 183.699982,274.034485 
	C191.512115,268.828735 200.500473,268.073853 208.946442,266.225403 
	C229.748001,261.672821 250.800552,258.437103 272.612274,258.029205 
z"/>
<path fill="#000101" opacity="1.000000" stroke="none" 
	d="
M1.000000,264.468658 
	C18.831490,263.112152 36.668171,264.190857 54.273716,266.366760 
	C77.486275,269.235535 100.884209,271.233856 123.687523,277.036926 
	C132.340073,279.238922 140.301666,282.954895 148.158310,286.913544 
	C155.438690,290.581879 155.639893,295.842743 148.853256,300.571136 
	C143.560440,304.258789 137.247253,305.522278 131.078430,306.838257 
	C108.124123,311.735107 84.859024,314.281647 61.475407,316.067261 
	C43.752934,317.420624 26.052679,318.949188 8.262339,319.063354 
	C6.123384,319.077057 3.987996,319.646637 1.425477,319.979309 
	C1.000000,301.645782 1.000000,283.291534 1.000000,264.468658 
z"/>
<path fill="#F64B4B" opacity="1.000000" stroke="none" 
	d="
M327.724426,158.705154 
	C328.000000,173.354233 328.000000,187.708450 328.000000,202.531342 
	C324.268036,204.487701 321.175079,201.924805 317.494843,201.069519 
	C317.226746,200.753952 317.172607,200.778473 317.152222,200.756851 
	C313.340820,199.822739 309.454132,199.452789 305.636749,198.643555 
	C300.165314,197.483719 298.442474,199.610062 300.046387,205.128113 
	C300.784576,207.667740 301.817902,210.144180 302.258362,212.742844 
	C303.185333,218.211884 302.327332,223.115387 298.085388,227.311783 
	C296.056030,229.319366 294.169586,231.580154 292.323456,233.804688 
	C290.972534,235.432541 289.589508,236.033737 287.345825,235.148499 
	C287.067657,234.871124 287.116486,234.878036 287.119812,234.902466 
	C284.997803,233.092529 284.570709,230.599213 285.047760,228.110168 
	C286.654877,219.724258 282.840881,213.408340 277.570068,207.587143 
	C275.224182,204.996323 273.323181,202.100555 271.780090,198.986893 
	C270.051361,195.498611 270.251221,191.947525 273.340912,189.514938 
	C279.260864,184.854019 284.175812,178.916641 291.345703,175.280823 
	C291.837585,174.976013 292.030823,174.854309 292.497925,174.537018 
	C293.156586,174.133896 293.543030,173.929428 294.178833,173.534775 
	C294.583679,173.207672 294.740662,173.073639 295.112122,172.721069 
	C295.569336,172.179626 295.842621,171.885544 296.404724,171.469757 
	C296.997162,171.112793 297.327362,170.896408 297.893738,170.499969 
	C298.457977,170.093277 298.776672,169.852295 299.346069,169.436768 
	C300.079468,168.824966 300.351410,168.277527 300.467529,167.307800 
	C300.529510,163.530167 300.567169,160.081970 300.415649,156.290375 
	C300.287079,155.727921 300.206879,155.509201 299.970703,154.975494 
	C299.609650,154.227905 299.409607,153.793030 299.055450,153.017456 
	C298.821228,152.435852 298.745728,152.192841 298.628418,151.563309 
	C298.574982,150.641464 298.656769,150.120605 299.007568,149.249573 
	C299.474670,148.424896 299.790985,147.984680 300.439331,147.291046 
	C302.074341,146.051422 303.548248,145.849258 304.970917,146.618698 
	C312.414093,150.644287 320.513367,153.419830 327.724426,158.705154 
z"/>
<path fill="#3A9E12" opacity="1.000000" stroke="none" 
	d="
M111.327415,68.841522 
	C106.605789,67.151276 103.264023,61.084320 104.706947,55.918598 
	C105.684410,52.419296 104.494789,50.863705 101.986824,48.929146 
	C91.281723,40.671570 80.138123,33.098927 68.289070,26.586201 
	C54.166241,18.823709 38.601063,17.008841 22.922220,16.001698 
	C15.952586,15.553997 8.931255,15.911104 1.466695,15.951456 
	C1.000000,14.933331 1.000000,13.866661 1.000000,12.399996 
	C11.801332,12.002185 22.604034,12.113594 33.403637,11.977947 
	C45.926315,11.820660 57.169132,16.345022 68.033379,21.695730 
	C81.303055,28.231129 93.822128,36.034473 103.988670,47.066830 
	C105.274178,48.461830 106.777313,49.699314 108.776176,49.042236 
	C120.142990,45.305706 126.517517,51.687180 131.942017,60.604897 
	C131.965103,61.737667 131.540054,62.335350 130.585281,62.978722 
	C127.969688,63.701248 126.550713,62.230743 125.091698,60.906212 
	C122.899101,58.915730 120.688873,56.896992 118.141144,55.420593 
	C114.354958,53.226521 111.377632,55.253128 111.281731,59.627007 
	C111.215271,62.658470 113.752663,65.578651 111.327415,68.841522 
z"/>
<path fill="#A71E1F" opacity="1.000000" stroke="none" 
	d="
M328.000000,39.625000 
	C321.073303,47.788162 312.194305,50.641243 302.061798,50.034218 
	C291.174042,49.381950 280.539825,49.649303 270.608643,55.189133 
	C268.258209,56.500259 265.146240,56.446232 261.944824,57.026257 
	C260.862122,54.448761 262.596832,53.266663 264.752441,51.997643 
	C267.251740,51.648048 269.216095,53.442947 271.762512,52.305050 
	C281.845459,47.947079 291.909393,45.920918 302.643646,46.643154 
	C312.124512,47.281055 320.720581,44.586349 327.739868,37.211578 
	C328.000000,37.750000 328.000000,38.500000 328.000000,39.625000 
z"/>
<path fill="#3BA70A" opacity="1.000000" stroke="none" 
	d="
M25.990902,138.267593 
	C26.851780,137.303009 27.412115,136.493423 28.053284,135.395081 
	C28.022177,130.137955 30.402554,126.208969 33.777199,122.437698 
	C34.446934,122.389587 34.718868,122.432495 35.340866,122.701118 
	C38.172325,129.519989 34.442387,141.145172 28.797859,145.142776 
	C26.828856,146.537292 24.786886,146.465530 22.295284,146.771011 
	C13.768310,149.396011 9.325404,156.346695 3.751039,161.908752 
	C2.931187,162.726807 2.265384,163.699249 1.264154,164.800140 
	C1.000000,163.611115 1.000000,162.222214 1.000000,160.416656 
	C1.857982,158.820023 2.340855,157.363907 3.850363,156.290283 
	C4.105958,156.105148 4.036719,156.014557 4.075834,156.061035 
	C7.387657,151.744415 11.133563,147.988052 16.880718,146.235992 
	C17.665953,145.839767 18.137745,145.603363 18.799925,145.180542 
	C20.656776,142.225647 23.636774,140.796387 25.990902,138.267593 
z"/>
<path fill="#AE1517" opacity="1.000000" stroke="none" 
	d="
M328.000000,158.625000 
	C321.111267,157.150665 315.078522,153.294662 308.513062,150.687531 
	C306.225037,149.778961 303.936249,148.872238 300.911011,148.083191 
	C299.694244,148.306915 299.211548,148.316467 298.390930,148.097290 
	C296.609009,145.474365 294.111511,143.618515 293.861115,140.225525 
	C300.960266,141.285049 306.693665,145.318283 312.864380,148.353638 
	C317.735992,150.749969 322.490295,153.384735 327.648376,155.956802 
	C328.000000,156.750000 328.000000,157.500000 328.000000,158.625000 
z"/>
<path fill="#102510" opacity="1.000000" stroke="none" 
	d="
M328.000000,254.625000 
	C311.632446,255.995590 295.264893,256.991180 278.456116,257.972107 
	C284.544678,254.038666 292.053223,254.002213 299.209412,253.212234 
	C308.429108,252.194458 317.778351,252.349747 327.535889,251.999908 
	C328.000000,252.750000 328.000000,253.500000 328.000000,254.625000 
z"/>
<path fill="#AE1517" opacity="1.000000" stroke="none" 
	d="
M317.454224,201.010117 
	C320.572998,201.414230 323.919250,202.074509 327.632751,202.867386 
	C328.000000,203.444443 328.000000,203.888901 328.000000,204.666672 
	C324.498993,203.925583 320.763855,203.498245 317.454224,201.010117 
z"/>
<path fill="#5CE212" opacity="1.000000" stroke="none" 
	d="
M3.782388,156.143341 
	C3.753834,157.652466 2.712395,158.697632 1.265273,159.820251 
	C1.000000,159.250000 1.000000,158.500000 0.999999,157.375000 
	C1.819604,156.727173 2.639211,156.454346 3.782388,156.143341 
z"/>
<path fill="#5AE610" opacity="1.000000" stroke="none" 
	d="
M22.284313,147.083710 
	C31.524361,142.205612 34.089905,133.358154 35.385788,123.325577 
	C35.089783,122.278709 34.874477,121.645248 35.122688,120.627670 
	C35.407261,120.152077 35.561649,119.988884 36.036873,119.726532 
	C37.811020,119.804466 37.915520,120.982834 38.294968,122.353676 
	C38.710949,123.232567 38.963150,123.827057 39.309410,124.728088 
	C39.562401,125.670120 39.893612,126.191963 40.673885,126.777893 
	C40.931007,126.962677 41.008194,126.988731 41.022911,127.026718 
	C41.192959,127.211006 41.348289,127.357307 41.725677,127.734116 
	C41.947742,127.964630 42.016075,127.984474 42.025581,128.018753 
	C48.303059,132.572495 48.636383,139.466599 49.374168,146.234604 
	C50.572758,157.229706 51.360535,168.317169 57.672409,178.020096 
	C59.506088,180.838928 59.175877,183.894043 57.737915,187.035782 
	C55.631969,191.637009 51.847771,194.683990 48.094143,198.352509 
	C46.689335,199.293900 45.612392,199.978256 44.262592,200.829224 
	C43.328156,201.178726 42.686874,201.087097 42.118011,200.734772 
	C38.502285,198.495575 35.149765,188.869125 36.752804,184.385513 
	C42.107231,181.359329 43.958862,176.604645 41.683216,169.722824 
	C38.384521,159.747192 32.712189,151.536469 22.284313,147.083710 
z"/>
<path fill="#3FA00D" opacity="1.000000" stroke="none" 
	d="
M49.470093,73.339516 
	C49.813709,72.270805 49.915264,71.521255 50.020134,70.392952 
	C50.367558,67.429741 49.153675,64.378044 52.576767,62.882248 
	C52.982204,64.181427 53.052814,65.214890 53.182182,66.632744 
	C53.800251,67.707191 54.000435,68.509613 53.977356,69.697586 
	C54.038681,71.070328 54.103172,72.126373 54.228027,73.574890 
	C55.855118,75.903038 57.559315,76.414925 59.628956,74.630035 
	C60.487823,73.889336 61.555454,73.470863 63.127224,73.556686 
	C65.440720,74.179070 66.104797,75.432983 65.257065,77.735802 
	C61.495361,83.272865 61.286098,88.144493 66.247818,92.634857 
	C66.661377,93.009125 67.106148,94.082695 66.940025,94.254456 
	C64.112167,97.177872 67.334961,97.973206 68.802483,99.699905 
	C68.386650,101.912842 67.350899,103.892159 69.682678,105.825745 
	C69.888588,106.096977 69.913994,106.098885 69.925430,106.104523 
	C70.980255,106.927132 72.757072,106.667290 73.056023,108.650398 
	C72.896584,108.957611 72.994278,108.980591 72.948608,108.959000 
	C72.116211,110.015808 71.213013,110.876907 69.402710,110.649185 
	C66.795776,107.867012 64.522720,105.066154 62.217777,102.291794 
	C59.450562,98.961037 56.526993,99.475395 53.093002,101.493126 
	C47.652946,104.689575 44.507504,110.000793 40.156410,114.649246 
	C39.779999,115.091873 39.613190,115.277466 39.154530,115.699646 
	C38.200726,116.399780 37.496304,116.556198 36.445480,115.964264 
	C35.053761,112.571465 36.529510,109.474648 37.948059,107.373528 
	C40.073223,104.225784 41.140984,100.607086 43.589886,97.288986 
	C43.996475,96.314056 44.128574,95.618500 44.291302,94.570068 
	C43.990105,93.021904 44.611496,92.210426 45.633171,91.239510 
	C45.912758,90.570396 45.984653,90.138260 46.074867,89.377861 
	C46.911087,83.873039 47.055923,78.559395 49.470093,73.339516 
z"/>
<path fill="#6A1911" opacity="1.000000" stroke="none" 
	d="
M294.029724,139.931595 
	C295.581909,142.148376 297.120575,144.388519 298.929749,146.833282 
	C299.541351,147.524750 300.137482,147.483994 300.800049,147.895584 
	C300.998047,148.075745 300.963654,147.995407 300.923004,148.010925 
	C300.766144,148.441574 300.649902,148.856720 300.603027,149.604492 
	C300.530304,150.496002 300.467255,151.052048 300.983643,151.728745 
	C301.235504,151.861130 301.188141,151.986115 301.201141,151.923416 
	C301.409119,152.424591 301.493652,153.016129 301.844788,153.812790 
	C302.042206,154.035233 302.163177,154.383545 302.197021,154.564774 
	C302.724762,158.919769 302.552124,163.106003 302.344727,167.759430 
	C301.846649,168.941254 301.469574,169.654251 300.865662,170.572357 
	C300.596558,171.563049 299.899261,171.455460 299.206238,171.833191 
	C298.549042,172.314636 298.118073,172.625046 297.445374,173.046814 
	C296.887909,173.237976 296.606659,173.384018 296.150604,173.712509 
	C295.941376,173.828690 295.524902,173.982132 295.311859,174.044235 
	C294.906891,174.232086 294.714996,174.357819 294.246643,174.688492 
	C293.809174,174.957108 293.648163,175.020798 293.241333,175.168304 
	C292.819031,175.115631 292.642487,174.979126 292.355499,174.526642 
	C293.100464,173.196915 293.762207,171.841049 294.844604,171.228394 
	C299.659302,168.503311 299.666077,164.103836 299.316742,159.482941 
	C298.240051,145.241211 290.841400,137.643860 276.812988,135.125473 
	C264.928711,132.991989 252.785233,132.487564 241.102203,128.952545 
	C236.492401,127.557739 231.501251,128.727081 226.351227,129.944351 
	C232.118408,124.498772 238.687592,122.861946 246.494995,126.858353 
	C252.783157,130.077087 259.887421,130.763412 266.818878,131.697617 
	C273.097656,132.543854 279.312408,133.619125 285.666687,135.754349 
	C286.651642,136.742676 287.636963,136.390488 288.718201,136.820618 
	C288.965088,137.047272 288.997559,137.000000 288.983673,137.023697 
	C289.224915,137.240799 289.466461,137.449905 289.913696,137.771469 
	C290.133026,137.868240 290.065613,137.906937 290.073669,137.868927 
	C290.401489,138.454803 291.031189,138.482666 291.875397,138.751190 
	C292.147858,138.880386 292.496613,139.044617 292.667053,139.134613 
	C293.178009,139.262894 293.456390,139.414932 293.870728,139.821182 
	C294.068787,139.961639 294.016266,139.954941 294.029724,139.931595 
z"/>
<path fill="#3A9F13" opacity="1.000000" stroke="none" 
	d="
M36.628456,184.105347 
	C38.237499,189.879105 40.995102,195.130722 43.766464,200.730972 
	C38.234188,204.341263 32.478642,207.686691 26.140829,211.370560 
	C26.140829,204.566910 26.033508,198.185883 26.189772,191.811310 
	C26.259430,188.969635 28.597986,187.641220 30.844028,186.523178 
	C32.609009,185.644623 34.467548,184.954010 36.628456,184.105347 
z"/>
<path fill="#53D51E" opacity="1.000000" stroke="none" 
	d="
M69.292229,110.960991 
	C69.817192,109.479523 70.922081,108.998108 72.583221,108.948883 
	C73.927177,116.128914 79.630028,121.510521 80.573296,128.738098 
	C80.613701,129.047623 80.974258,129.319672 81.002174,129.625900 
	C81.610603,136.298630 85.672073,137.823517 91.715500,137.584946 
	C95.930336,137.418564 99.545929,135.354630 99.941269,131.057938 
	C100.202820,128.215393 100.976410,126.302109 104.104393,125.880150 
	C106.712341,125.528343 107.155113,123.047661 108.151115,121.217354 
	C109.577095,118.596870 110.710533,115.788979 113.882675,114.197731 
	C111.497978,122.985153 106.218941,130.691589 100.832405,137.808701 
	C97.749474,141.882141 90.468727,143.159393 84.632233,141.695145 
	C80.247711,140.595139 79.647171,135.916794 78.674339,132.044998 
	C78.230339,130.277924 77.819023,128.502640 77.227081,126.361084 
	C76.582985,125.572464 76.350555,124.983780 75.886963,124.185272 
	C74.128014,119.465126 71.870689,115.337761 69.292229,110.960991 
z"/>
<path fill="#419D16" opacity="1.000000" stroke="none" 
	d="
M48.116055,198.611847 
	C50.372353,194.393860 53.024807,190.205887 55.565720,185.951294 
	C56.913181,183.695053 57.561386,181.120956 55.857014,178.884369 
	C50.369865,171.683777 50.583588,162.957520 49.130184,154.685974 
	C48.411884,150.598022 47.954124,146.459747 47.502712,142.330643 
	C46.951977,137.292999 45.714539,132.562393 42.087120,128.393982 
	C46.668854,129.098007 48.084915,133.010605 49.163574,136.768936 
	C50.206470,140.402710 50.933727,144.275864 50.907917,148.037735 
	C50.847019,156.912842 53.129063,164.958054 57.221256,172.810242 
	C63.626797,185.101334 61.002605,192.229904 48.116055,198.611847 
z"/>
<path fill="#5CE611" opacity="1.000000" stroke="none" 
	d="
M111.013275,69.007294 
	C110.218796,65.984856 109.377609,62.960316 108.616814,59.915691 
	C107.913673,57.101822 108.421661,54.684128 111.011276,52.946350 
	C113.794807,51.078457 116.701477,50.820526 119.332314,52.871056 
	C122.847740,55.611038 126.108826,58.677357 129.764008,61.774643 
	C130.843994,62.545708 130.985703,63.382015 130.758667,64.715912 
	C129.305145,66.849930 127.612885,66.579109 125.448433,65.926758 
	C124.188553,65.702690 123.349503,65.591667 122.224106,65.342834 
	C121.771240,65.025093 121.604706,64.845146 121.276016,64.995300 
	C120.955780,65.584908 120.734550,65.768181 120.248154,65.958893 
	C117.821693,68.617645 115.401245,70.713158 111.297729,69.233932 
	C110.972939,68.982765 111.001625,68.996437 111.013275,69.007294 
z"/>
<path fill="#102510" opacity="1.000000" stroke="none" 
	d="
M272.684143,257.837524 
	C265.852264,258.970856 258.668274,260.003174 251.458908,260.808807 
	C228.860321,263.334167 206.459808,266.831940 184.379517,273.934387 
	C186.733185,270.492981 190.591934,269.090851 194.686829,268.165680 
	C207.481689,265.274994 220.224533,262.013885 233.235931,260.321808 
	C246.187973,258.637421 259.130585,256.127441 272.684143,257.837524 
z"/>
<path fill="#4ECB20" opacity="1.000000" stroke="none" 
	d="
M130.113953,65.789597 
	C130.075394,64.563637 130.069687,63.691425 130.056427,62.382492 
	C130.558090,61.713066 131.067307,61.480373 131.808655,61.089481 
	C132.523514,61.194798 133.006241,61.458313 133.938309,61.903870 
	C137.888092,64.730476 141.575073,64.468750 144.923523,62.129402 
	C149.458694,58.960972 154.026001,55.727066 157.092590,50.225796 
	C158.731598,52.768276 157.755234,55.018353 157.737854,57.557785 
	C156.534851,59.970207 155.436615,62.005497 153.169037,63.538620 
	C152.881699,63.730007 152.871902,63.844273 152.829010,63.882313 
	C152.422699,64.466919 151.982925,64.939644 151.155792,65.470673 
	C150.269821,66.258636 149.668152,66.888687 148.808167,67.719818 
	C148.391998,68.301407 148.107086,68.491356 147.442047,68.358109 
	C146.606491,68.355293 146.023972,68.485031 144.789520,68.892166 
	C143.064774,69.215080 141.991989,69.260597 140.520432,69.238235 
	C136.744247,68.334244 133.027634,68.615860 130.113953,65.789597 
z"/>
<path fill="#AE1517" opacity="1.000000" stroke="none" 
	d="
M287.180237,235.162292 
	C295.979797,231.123596 302.502319,219.040741 300.479950,209.917068 
	C299.870605,207.167908 298.976044,204.480743 298.398193,201.726135 
	C297.296600,196.474701 298.345245,195.438126 303.746796,196.495667 
	C308.138367,197.355484 312.498718,198.383224 316.867493,200.494537 
	C313.273804,201.292130 309.556061,200.565033 305.781036,199.795135 
	C301.078857,198.836136 299.189148,201.093231 300.513397,205.705414 
	C300.971680,207.301620 301.601837,208.847656 302.119202,210.427841 
	C304.134308,216.582825 304.462036,222.436874 299.528107,227.605331 
	C297.240540,230.001617 295.197998,232.639755 293.135010,235.240189 
	C291.217346,237.657455 289.317871,237.516983 287.180237,235.162292 
z"/>
<path fill="#58180A" opacity="1.000000" stroke="none" 
	d="
M202.886688,86.580917 
	C203.159714,87.152618 203.264236,87.660309 203.473907,87.708260 
	C213.884827,90.089378 214.848495,99.990295 218.735123,107.353065 
	C220.984146,111.613556 218.794464,116.734497 214.266434,119.879036 
	C212.382248,121.187523 211.912079,121.889809 213.066788,124.040482 
	C213.861145,125.520020 213.667191,127.593605 213.702240,129.405792 
	C213.819550,135.471985 214.845367,136.093933 220.515137,133.392929 
	C221.106689,133.111115 221.727432,132.890564 222.657913,132.549164 
	C221.121964,135.827103 218.035034,136.345123 214.830582,135.353622 
	C211.574844,134.346237 211.519577,131.315186 211.214432,128.391907 
	C210.707535,123.535500 210.568466,119.351410 215.432785,115.989624 
	C218.377380,113.954575 217.623932,109.960747 216.190689,106.765465 
	C214.628220,103.282173 212.879059,99.882713 211.216202,96.444328 
	C210.026031,93.983360 208.595825,92.078636 205.545746,91.420944 
	C202.751404,90.818382 200.932785,88.806465 201.744049,85.207481 
	C202.545959,85.134048 202.760208,85.652542 202.886688,86.580917 
z"/>
<path fill="#AE1517" opacity="1.000000" stroke="none" 
	d="
M291.948364,174.405762 
	C292.443756,174.418137 292.629150,174.636841 292.898438,175.059433 
	C286.162384,178.893463 281.318573,185.052414 275.045959,189.427399 
	C271.141724,192.150482 270.531067,195.932831 273.286682,199.875809 
	C276.146332,203.967712 279.217651,207.913544 282.249695,211.882568 
	C285.279144,215.848190 287.282715,219.983582 286.225098,225.264160 
	C285.643127,228.169861 285.736176,231.250748 287.063995,234.518005 
	C284.623260,233.372314 284.325165,230.852280 284.686157,228.371582 
	C285.865356,220.268387 282.392792,213.861359 277.222534,208.278244 
	C274.088898,204.894318 272.312988,200.867447 270.384827,196.882523 
	C268.825714,193.660324 270.655884,190.654236 272.756989,188.827408 
	C278.702240,183.658203 284.299286,177.931030 291.948364,174.405762 
z"/>
<path fill="#58180A" opacity="1.000000" stroke="none" 
	d="
M228.738846,58.869598 
	C226.704987,58.484753 225.274643,59.489254 223.378082,60.044609 
	C226.356461,55.897408 230.987595,54.430733 236.026627,54.257545 
	C241.524826,54.068577 246.823822,54.452431 250.112885,48.334221 
	C251.735153,45.316521 260.750000,45.313244 265.559692,47.786514 
	C263.492493,49.026951 261.137817,49.618015 258.477722,50.320557 
	C257.965118,50.489639 257.761810,50.559898 257.261292,50.753098 
	C256.568207,51.042469 256.176575,51.218342 255.503632,51.557156 
	C252.099579,52.582596 251.447983,56.553036 247.888580,57.264450 
	C243.009552,57.447914 238.458710,57.650970 233.456909,57.975182 
	C232.840775,58.283043 232.675613,58.469749 232.250793,58.387413 
	C231.522614,58.081650 231.054077,58.044930 230.242401,58.103333 
	C229.611069,58.420155 229.314392,58.629753 228.738846,58.869598 
z"/>
<path fill="#3A9E12" opacity="1.000000" stroke="none" 
	d="
M111.103996,69.299431 
	C114.258759,69.408455 116.337425,66.463715 119.675217,66.020683 
	C120.020645,67.500038 119.698051,69.002556 120.852646,70.635811 
	C121.678993,74.860817 124.159645,78.365860 123.282349,82.859467 
	C120.306175,82.660027 118.809296,83.614365 118.344063,86.572128 
	C117.829735,89.841965 116.868393,93.041481 115.854210,96.555527 
	C112.313927,93.605118 112.266121,90.296051 115.719765,84.376923 
	C116.362389,82.927139 116.717194,81.844879 117.102615,80.420609 
	C116.384811,77.255310 118.281151,73.927132 115.244461,71.248032 
	C113.623413,70.860794 112.144058,71.011444 111.103996,69.299431 
z"/>
<path fill="#5BE318" opacity="1.000000" stroke="none" 
	d="
M123.271797,83.221191 
	C120.187462,79.779083 119.049072,76.019424 120.833847,71.325066 
	C121.012810,70.966225 121.441185,71.036987 121.655418,71.072060 
	C122.911583,71.782578 124.243118,71.827919 125.447281,72.953514 
	C127.496300,74.353485 129.534912,74.803528 131.561905,75.326920 
	C135.693390,76.393707 136.036026,77.504684 133.199615,81.522278 
	C132.883774,81.760788 132.856201,81.854599 132.807861,81.847336 
	C131.479019,83.016106 129.856812,82.873802 127.908569,82.999016 
	C126.449181,83.138985 125.442154,82.788239 124.154892,82.929794 
	C123.897995,83.226036 123.477631,83.268799 123.271797,83.221191 
z"/>
<path fill="#53D51E" opacity="1.000000" stroke="none" 
	d="
M115.711792,84.120834 
	C115.503769,88.037033 114.416801,92.030136 115.448090,96.489349 
	C115.614578,98.305893 115.622475,99.772346 115.637817,101.677681 
	C115.956017,105.468803 116.783302,108.859734 114.475433,112.062881 
	C112.332664,109.354729 113.456383,106.221878 112.788612,103.352371 
	C112.345970,101.450233 112.269516,99.362465 110.118378,97.857590 
	C110.247162,94.207527 109.495071,90.964462 108.012962,87.876221 
	C107.208969,86.200951 107.047035,84.502007 107.643555,82.428955 
	C108.484421,82.588989 109.465675,82.902985 109.702682,83.508362 
	C111.215912,87.373459 113.242348,86.167351 115.711792,84.120834 
z"/>
<path fill="#3AC32B" opacity="1.000000" stroke="none" 
	d="
M133.238098,81.725777 
	C134.542328,78.632660 133.388885,76.955421 130.145264,76.138428 
	C128.437912,75.708382 126.639297,75.335060 125.124390,73.721939 
	C125.068123,73.209564 125.191353,72.972824 125.640976,72.967896 
	C130.332275,75.075127 134.947083,74.729530 139.525909,74.755424 
	C140.440231,74.760605 141.721695,74.470421 141.996185,75.688927 
	C142.224579,76.702843 141.447861,77.457130 140.478653,77.961029 
	C138.162857,79.165047 135.885391,80.442787 133.238098,81.725777 
z"/>
<path fill="#58180A" opacity="1.000000" stroke="none" 
	d="
M195.576309,73.111084 
	C195.574875,75.990234 196.617386,78.021538 198.963333,79.746719 
	C199.405777,80.358101 199.470398,80.740356 199.242111,81.362579 
	C194.182144,81.974350 193.711334,78.332909 193.365631,75.004723 
	C192.885620,70.383736 195.458847,66.789749 199.523209,66.384895 
	C203.433411,65.995415 207.394485,65.867081 211.691315,66.736633 
	C211.401642,67.726242 210.496796,67.884300 209.039108,67.732094 
	C208.570053,67.658295 208.208282,67.682343 208.208282,67.682343 
	C208.208282,67.682343 207.845703,67.681374 207.664871,67.668411 
	C204.738159,68.931152 201.898163,69.855537 198.463989,69.961441 
	C196.812683,70.466026 196.212891,71.546936 195.576309,73.111084 
z"/>
<path fill="#102510" opacity="1.000000" stroke="none" 
	d="
M168.714874,282.132507 
	C164.549469,288.360748 165.956482,293.721497 171.847626,298.675171 
	C167.435547,298.930115 165.203094,296.208099 163.916550,292.136749 
	C162.421310,287.404999 163.815170,284.138977 168.714874,282.132507 
z"/>
<path fill="#3A9E12" opacity="1.000000" stroke="none" 
	d="
M129.705856,65.333817 
	C133.276627,66.536583 136.472137,67.637321 139.894653,68.954208 
	C135.039841,69.148026 130.021271,68.776001 125.187561,66.155777 
	C126.345367,64.757744 127.835648,64.977417 129.705856,65.333817 
z"/>
<path fill="#102510" opacity="1.000000" stroke="none" 
	d="
M180.682816,275.026001 
	C177.308029,277.316315 173.520157,279.601013 169.397324,281.971130 
	C170.955643,276.776367 175.259583,275.335938 180.682816,275.026001 
z"/>
<path fill="#3A9E12" opacity="1.000000" stroke="none" 
	d="
M114.081055,112.448349 
	C115.748566,109.165344 114.483963,105.841408 115.490349,102.463837 
	C117.804596,106.151413 117.021561,110.027763 114.736069,114.049866 
	C114.343056,113.780617 114.227806,113.299644 114.081055,112.448349 
z"/>
<path fill="#A71E1F" opacity="1.000000" stroke="none" 
	d="
M256.041565,48.289146 
	C258.953064,46.857376 261.991119,46.746326 265.393768,47.958275 
	C265.745178,48.101208 265.962189,48.516586 266.015259,48.744820 
	C266.204529,49.136761 266.340698,49.300465 266.590363,49.762749 
	C266.703827,50.061329 266.801605,50.159843 266.852173,50.207390 
	C267.617004,50.961311 267.411224,51.613464 266.415405,52.362373 
	C262.445099,51.996162 259.182953,50.634659 256.041565,48.289146 
z"/>
<path fill="#3A9E12" opacity="1.000000" stroke="none" 
	d="
M153.219589,63.674782 
	C153.729385,61.456833 155.039352,59.531857 157.380768,58.065140 
	C158.231079,61.260860 155.860535,62.415562 153.219589,63.674782 
z"/>
<path fill="#39B414" opacity="1.000000" stroke="none" 
	d="
M36.439064,116.231712 
	C37.373280,115.813095 37.929440,115.570427 38.764168,115.207581 
	C39.392208,115.533371 39.510136,116.033897 39.209858,116.944809 
	C39.023190,117.300636 39.027317,117.590614 38.975426,117.726013 
	C38.097233,119.335945 38.725163,120.968361 38.155739,122.792236 
	C37.379818,122.222389 36.868130,121.359779 36.164360,120.265526 
	C34.772552,118.795067 34.889145,117.588455 36.439064,116.231712 
z"/>
<path fill="#58180A" opacity="1.000000" stroke="none" 
	d="
M266.062561,52.245026 
	C266.630859,51.581661 266.737152,51.142181 266.873077,50.478821 
	C268.356140,50.964058 269.571045,52.244408 271.732880,52.146736 
	C270.551178,53.520718 268.907013,54.462097 266.475403,53.411934 
	C265.976044,53.041264 265.788269,52.755116 266.062561,52.245026 
z"/>
<path fill="#B21219" opacity="1.000000" stroke="none" 
	d="
M218.773010,65.825478 
	C218.891693,69.341103 217.769012,71.276077 213.817627,69.707748 
	C213.417587,69.355850 213.279892,69.177086 213.362823,68.741150 
	C214.821060,68.025261 216.325958,68.490601 217.587341,67.121017 
	C217.797699,66.855301 217.919250,66.454323 217.989929,66.257111 
	C218.222519,65.893753 218.384415,65.727615 218.773010,65.825478 
z"/>
<path fill="#3AC32B" opacity="1.000000" stroke="none" 
	d="
M126.812302,82.279167 
	C128.662460,82.011314 130.300735,81.906013 132.349258,81.820396 
	C131.334518,83.240616 129.630005,83.901405 127.265930,83.830566 
	C126.786598,83.747437 126.670715,83.612274 126.501602,83.215416 
	C126.499062,82.783051 126.549736,82.612381 126.812302,82.279167 
z"/>
<path fill="#B21219" opacity="1.000000" stroke="none" 
	d="
M208.828827,67.872147 
	C209.445007,67.467957 210.319977,67.277611 211.632111,66.992920 
	C212.069275,66.898567 212.496490,66.991432 212.704132,67.059761 
	C213.526733,67.390350 214.047058,67.752029 214.132004,68.717728 
	C213.991455,69.012024 213.776260,69.272888 213.665771,69.403755 
	C212.066055,69.051743 210.576828,68.568863 208.828827,67.872147 
z"/>
<path fill="#23B638" opacity="1.000000" stroke="none" 
	d="
M37.955807,123.346527 
	C38.107697,121.568008 38.323887,120.051003 38.731804,118.197708 
	C39.278938,120.002808 39.634346,122.144211 39.962738,124.686295 
	C39.721676,125.319801 39.507633,125.552620 38.969986,125.438553 
	C38.437626,124.597122 38.228870,124.102585 37.955807,123.346527 
z"/>
<path fill="#58180A" opacity="1.000000" stroke="none" 
	d="
M222.696747,60.044250 
	C221.977798,61.387760 220.887131,62.733379 219.512817,64.259758 
	C219.092041,62.152142 219.934052,60.553593 222.696747,60.044250 
z"/>
<path fill="#094D06" opacity="1.000000" stroke="none" 
	d="
M125.839386,72.861549 
	C125.795120,73.233101 125.622879,73.266502 125.197769,73.373100 
	C124.028877,72.857567 123.112854,72.268822 122.033249,71.393600 
	C123.339424,71.066048 124.834427,70.956505 125.839386,72.861549 
z"/>
<path fill="#58180A" opacity="1.000000" stroke="none" 
	d="
M214.346329,69.044769 
	C213.700470,68.551781 213.409470,68.091537 213.015137,67.379692 
	C214.346741,67.324570 215.787613,67.945938 217.502670,66.961823 
	C217.487579,68.602150 216.269028,69.083176 214.346329,69.044769 
z"/>
<path fill="#B21219" opacity="1.000000" stroke="none" 
	d="
M203.130676,86.593414 
	C202.709671,86.382874 202.413208,85.906334 201.998138,85.166039 
	C201.859085,84.510498 201.838654,84.118706 201.775894,83.435425 
	C201.672684,82.913261 201.611832,82.682610 201.802704,82.197662 
	C203.415421,83.141586 203.599365,84.662178 203.130676,86.593414 
z"/>
<path fill="#3A9E12" opacity="1.000000" stroke="none" 
	d="
M126.419716,82.786957 
	C126.866493,83.000046 126.904778,83.439590 126.903625,83.661087 
	C126.263260,84.872772 125.551910,84.592209 124.697449,83.778519 
	C124.737289,82.798737 125.204269,82.471222 126.419716,82.786957 
z"/>
<path fill="#3A9E12" opacity="1.000000" stroke="none" 
	d="
M151.165314,65.598633 
	C151.335251,65.108055 151.799011,64.587524 152.524445,63.993675 
	C152.799561,64.836723 152.333725,65.367249 151.165314,65.598633 
z"/>
<path fill="#1B8517" opacity="1.000000" stroke="none" 
	d="
M75.680145,124.117508 
	C76.141586,124.395645 76.518661,124.891052 76.978500,125.688774 
	C76.286362,125.692398 75.694542,125.231712 75.680145,124.117508 
z"/>
<path fill="#419D16" opacity="1.000000" stroke="none" 
	d="
M38.796257,125.371002 
	C38.861298,125.088181 39.076218,125.084702 39.613426,125.084091 
	C40.241764,125.533646 40.547806,125.980324 40.892433,126.694839 
	C40.269382,126.525230 39.607758,126.087784 38.796257,125.371002 
z"/>
<path fill="#4ECB20" opacity="1.000000" stroke="none" 
	d="
M126.911453,82.780182 
	C126.357071,83.116699 125.847656,83.233360 124.955109,83.453209 
	C124.571983,83.556404 124.172211,83.520966 124.035103,83.373505 
	C124.711929,82.859718 125.525864,82.493401 126.681992,82.121857 
	C127.024185,82.116623 126.956421,82.560310 126.911453,82.780182 
z"/>
<path fill="#B21219" opacity="1.000000" stroke="none" 
	d="
M199.369751,81.541611 
	C199.087830,81.230392 199.125656,80.874016 199.209000,80.253517 
	C199.564468,80.224503 199.874405,80.459602 200.193008,80.898849 
	C200.030930,81.234146 199.860214,81.365295 199.369751,81.541611 
z"/>
<path fill="#3A9E12" opacity="1.000000" stroke="none" 
	d="
M147.366241,68.343987 
	C147.523605,68.103165 147.858215,67.980782 148.371353,67.889648 
	C148.214417,68.101402 147.878952,68.281906 147.366241,68.343987 
z"/>
<path fill="#23B638" opacity="1.000000" stroke="none" 
	d="
M39.290787,117.084579 
	C39.026260,116.807617 39.029335,116.314598 39.037575,115.454483 
	C39.042740,115.087395 39.494987,114.998535 39.720894,114.952408 
	C39.817329,115.560364 39.687855,116.214439 39.290787,117.084579 
z"/>
<path fill="#3A9E12" opacity="1.000000" stroke="none" 
	d="
M134.410522,62.012032 
	C134.387650,62.085907 134.263718,62.111874 134.255981,62.078011 
	C134.248230,62.044144 134.433395,61.938156 134.410522,62.012032 
z"/>
<path fill="#5BD11D" opacity="1.000000" stroke="none" 
	d="
M121.330048,65.365189 
	C121.240143,65.030334 121.450859,64.927139 121.841888,65.110428 
	C121.937775,65.205040 121.546234,65.404976 121.330048,65.365189 
z"/>
<path fill="#58180A" opacity="1.000000" stroke="none" 
	d="
M266.621277,49.867722 
	C266.409149,49.937778 266.209229,49.725098 266.086243,49.198170 
	C266.254944,49.186775 266.411743,49.420460 266.621277,49.867722 
z"/>
<path fill="#58180A" opacity="1.000000" stroke="none" 
	d="
M219.091446,65.771515 
	C218.999710,66.089485 218.530350,66.064331 218.295471,66.062111 
	C218.244583,65.743774 218.428558,65.427650 218.845642,64.955734 
	C219.113586,65.017807 219.148392,65.235672 219.091446,65.771515 
z"/>
<path fill="#419D16" opacity="1.000000" stroke="none" 
	d="
M41.893799,127.732727 
	C41.636295,127.902328 41.389679,127.740974 41.122757,127.272636 
	C41.390198,127.053482 41.657608,127.198853 41.893799,127.732727 
z"/>
<path fill="#6A1911" opacity="1.000000" stroke="none" 
	d="
M225.060486,130.675446 
	C225.025284,130.459015 225.234985,130.194107 225.708618,129.918365 
	C225.750168,130.147324 225.527771,130.387146 225.060486,130.675446 
z"/>
<path fill="#58180A" opacity="1.000000" stroke="none" 
	d="
M201.775543,81.797043 
	C202.008072,82.145256 201.961700,82.347145 201.824448,82.846474 
	C201.498459,82.860313 201.263382,82.576698 200.951752,82.023659 
	C201.082352,81.719719 201.289474,81.685219 201.775543,81.797043 
z"/>
<path fill="#3A9E12" opacity="1.000000" stroke="none" 
	d="
M144.238876,69.240814 
	C144.137558,69.169571 144.431396,68.949478 144.525665,68.960091 
	C144.619919,68.970703 144.340195,69.312050 144.238876,69.240814 
z"/>
<path fill="#3DA905" opacity="1.000000" stroke="none" 
	d="
M31.810268,94.729126 
	C32.218586,95.179756 32.427452,95.404587 32.800129,95.791290 
	C33.230751,96.192940 33.471386,96.456581 33.824703,96.974640 
	C34.013939,97.603172 34.062035,98.003265 34.174545,98.698898 
	C39.044338,105.701019 37.301502,118.938629 30.481125,124.077133 
	C30.010736,123.534554 29.985113,123.073463 29.932930,122.267029 
	C29.309011,118.442383 30.149731,115.054382 30.820034,111.290268 
	C31.092844,110.515739 31.104794,110.089935 31.090195,109.345558 
	C30.061447,108.013062 30.020590,106.550400 29.216085,105.070145 
	C22.997032,99.387032 23.056829,91.846138 22.222225,84.724251 
	C21.394672,77.662544 20.295317,70.696724 17.911530,63.583515 
	C17.483986,62.526756 17.372925,61.841354 18.123285,60.946640 
	C18.954128,60.702328 19.339291,60.923473 19.809366,61.674507 
	C20.016560,61.976017 19.999350,62.000916 20.011799,61.992229 
	C21.018627,62.729092 22.233419,63.254009 22.790649,64.867188 
	C23.615820,66.864243 24.285980,68.586433 25.040392,70.648926 
	C25.493500,71.440445 25.834795,71.905899 25.900417,72.798882 
	C25.945257,73.817917 25.999985,74.546852 26.106773,75.637726 
	C29.434298,79.997276 27.229118,84.977783 28.743519,89.683205 
	C28.938200,90.040283 29.000187,90.014526 28.967621,90.018654 
	C29.435755,90.412247 29.485949,91.007942 29.801567,91.795929 
	C29.965622,92.034630 29.965605,92.001144 29.956686,92.018875 
	C30.807333,92.653725 31.162485,93.610153 31.810268,94.729126 
z"/>
<path fill="#5CE212" opacity="1.000000" stroke="none" 
	d="
M29.990269,124.364494 
	C37.027298,116.920830 35.268467,108.298264 34.276070,99.406136 
	C34.688087,99.177444 35.123734,99.411407 35.588730,99.534462 
	C37.402107,100.014328 37.458130,103.378487 39.301876,102.667442 
	C41.186153,101.940765 39.974617,99.648445 39.957623,97.922997 
	C39.930878,95.207718 42.142998,97.418373 43.551971,96.981888 
	C41.566387,103.108688 39.268402,109.207771 36.893768,115.681305 
	C36.556198,117.153366 36.295277,118.250984 36.003319,119.691238 
	C35.972282,120.033890 35.988136,120.010185 35.999161,120.002792 
	C35.291786,120.730415 35.137947,121.813202 34.211594,122.762833 
	C32.185383,126.833221 30.380238,130.697067 28.354607,134.833618 
	C25.038664,131.003235 29.289883,128.182114 29.990269,124.364494 
z"/>
<path fill="#3DAF05" opacity="1.000000" stroke="none" 
	d="
M65.334595,77.908974 
	C64.859383,76.567589 64.268814,75.345024 62.188904,75.000717 
	C61.247593,74.264709 61.180286,73.499977 61.657196,72.330070 
	C61.898312,71.544861 61.930996,71.107666 61.983139,70.342224 
	C62.049408,68.543991 61.866009,67.061966 62.442970,65.304184 
	C63.401203,64.550987 64.036583,64.681496 64.755722,65.688446 
	C64.948448,66.005333 65.007751,65.987503 65.037628,65.979355 
	C65.753456,66.837204 66.533974,67.203812 67.728264,66.221802 
	C68.154404,65.076973 67.903336,63.986977 69.273384,62.954327 
	C69.946991,68.907280 73.517166,69.303970 78.357048,68.327652 
	C81.477364,67.698204 84.827782,68.209412 88.200996,68.753517 
	C80.192963,70.712173 71.225174,70.069206 65.334595,77.908974 
z"/>
<path fill="#309F05" opacity="1.000000" stroke="none" 
	d="
M107.550316,82.277939 
	C108.985474,85.206558 110.146828,88.264519 111.253822,91.342033 
	C112.012863,93.452255 112.236992,95.511559 110.025856,97.419540 
	C103.246399,97.809593 102.321198,96.757278 103.980873,90.565430 
	C104.738197,87.740021 105.011002,84.666008 107.550316,82.277939 
z"/>
<path fill="#5CE212" opacity="1.000000" stroke="none" 
	d="
M16.783695,146.066803 
	C13.050804,149.358139 8.907446,152.640091 4.439518,156.014771 
	C5.454645,149.407639 10.114924,146.757950 16.783695,146.066803 
z"/>
<path fill="#5BE113" opacity="1.000000" stroke="none" 
	d="
M61.522385,72.075012 
	C61.868454,72.722305 61.871281,73.462563 61.854031,74.571953 
	C61.389416,75.413452 60.919006,75.864319 60.505203,76.362236 
	C59.282745,77.833191 58.342186,80.481377 56.412418,80.098404 
	C53.934654,79.606689 54.972969,76.570694 54.287930,74.338272 
	C56.800873,74.193092 58.922550,72.922218 61.522385,72.075012 
z"/>
<path fill="#5CE212" opacity="1.000000" stroke="none" 
	d="
M49.408089,73.102692 
	C48.893154,78.202003 48.133564,83.396225 46.274239,88.722717 
	C45.901325,83.534515 45.204166,77.923546 49.408089,73.102692 
z"/>
<path fill="#47CE08" opacity="1.000000" stroke="none" 
	d="
M89.222565,132.784882 
	C88.419403,128.692825 84.940445,124.634865 90.597992,120.537766 
	C89.823227,125.278587 90.134666,129.240433 90.526863,133.199905 
	C90.534889,133.280930 90.271317,133.487122 90.191689,133.460922 
	C89.902046,133.365646 89.636780,133.196289 89.222565,132.784882 
z"/>
<path fill="#5CE212" opacity="1.000000" stroke="none" 
	d="
M19.982449,61.611458 
	C19.718781,61.850693 19.454288,61.675201 19.063902,61.271072 
	C16.710352,60.240604 15.360019,58.561390 14.192736,56.241234 
	C13.983807,55.984467 14.005614,55.995594 14.010382,56.006866 
	C13.786922,55.787140 13.557786,55.557049 13.155048,55.156136 
	C12.982357,54.984409 13.003925,54.994255 13.010541,55.004093 
	C12.691860,54.745037 12.335633,54.525616 11.729921,54.125420 
	C11.050708,53.197578 10.531740,52.516769 10.805368,51.336926 
	C11.831653,50.174698 13.802236,48.625446 13.863274,49.962456 
	C14.088778,54.902058 20.060429,56.414772 19.982449,61.611458 
z"/>
<path fill="#5CE212" opacity="1.000000" stroke="none" 
	d="
M28.953270,89.575905 
	C26.227560,86.007782 27.274647,81.186691 26.161160,76.409103 
	C29.611519,77.150871 28.888884,80.105370 28.980776,82.659935 
	C29.058029,84.807541 28.978474,86.960777 28.953270,89.575905 
z"/>
<path fill="#5BE113" opacity="1.000000" stroke="none" 
	d="
M63.314415,64.658401 
	C62.831848,66.488693 62.613327,67.942337 62.198700,69.704979 
	C60.719933,66.433220 60.083267,62.871151 62.626701,59.193970 
	C63.862350,60.673035 64.192719,62.420670 63.314415,64.658401 
z"/>
<path fill="#5DDB17" opacity="1.000000" stroke="none" 
	d="
M115.079224,71.387802 
	C120.184685,72.487869 117.611916,76.294815 117.314896,79.722626 
	C115.378357,77.570351 116.334946,74.419174 115.079224,71.387802 
z"/>
<path fill="#5CE212" opacity="1.000000" stroke="none" 
	d="
M25.927956,138.164032 
	C24.928658,141.194183 22.205111,142.886703 19.287052,144.838852 
	C19.738304,141.334732 22.514324,139.642181 25.927956,138.164032 
z"/>
<path fill="#5BD11D" opacity="1.000000" stroke="none" 
	d="
M67.569992,66.006042 
	C67.467133,68.225830 67.006783,70.445351 66.384392,73.446136 
	C64.506126,70.931396 65.215424,68.775230 65.049057,66.387840 
	C65.782501,65.982735 66.497498,65.994255 67.569992,66.006042 
z"/>
<path fill="#60E318" opacity="1.000000" stroke="none" 
	d="
M30.825876,111.228401 
	C31.288151,114.390327 30.888807,117.779320 29.991543,121.524651 
	C28.504377,118.349205 28.444643,114.862450 30.825876,111.228401 
z"/>
<path fill="#5CE212" opacity="1.000000" stroke="none" 
	d="
M52.809971,62.858582 
	C50.163170,64.412346 51.447929,67.382362 50.161697,69.668884 
	C48.352055,67.387436 49.727913,64.870567 50.499382,62.441944 
	C50.886875,61.222099 52.014290,61.489826 52.809971,62.858582 
z"/>
<path fill="#3BB603" opacity="1.000000" stroke="none" 
	d="
M13.983135,56.343330 
	C15.948431,57.059620 17.373304,58.691956 18.770508,60.792004 
	C18.616062,61.607010 18.327402,62.121414 17.941584,62.922421 
	C16.071468,61.328312 14.501013,59.327419 13.983135,56.343330 
z"/>
<path fill="#53D51E" opacity="1.000000" stroke="none" 
	d="
M69.850761,105.768265 
	C66.988815,104.830940 65.963776,103.065117 68.642143,100.184830 
	C69.216522,101.802551 69.514725,103.621056 69.850761,105.768265 
z"/>
<path fill="#40C107" opacity="1.000000" stroke="none" 
	d="
M63.290150,65.150986 
	C63.025394,63.309059 63.000420,61.583073 62.959534,59.426575 
	C65.383652,60.494923 64.642914,63.028370 64.957527,65.610466 
	C64.475609,65.759193 64.002769,65.513054 63.290150,65.150986 
z"/>
<path fill="#47CE08" opacity="1.000000" stroke="none" 
	d="
M10.761204,50.973038 
	C11.285912,51.770214 11.592106,52.467255 11.963998,53.443443 
	C12.164057,53.946529 12.298420,54.170467 12.203053,54.711716 
	C10.717639,54.190891 9.477130,53.252586 9.082259,51.753548 
	C8.715133,50.359840 9.693238,50.581779 10.761204,50.973038 
z"/>
<path fill="#5CE212" opacity="1.000000" stroke="none" 
	d="
M45.536987,91.047455 
	C45.472324,91.924484 45.103786,92.846443 44.528587,93.992798 
	C43.125389,92.738121 43.200344,91.629814 45.536987,91.047455 
z"/>
<path fill="#53D51E" opacity="1.000000" stroke="none" 
	d="
M73.071953,108.713669 
	C72.021767,108.171478 71.146950,107.385345 70.104492,106.354683 
	C71.419289,106.365036 73.689156,105.515137 73.071953,108.713669 
z"/>
<path fill="#60E318" opacity="1.000000" stroke="none" 
	d="
M29.078091,105.125565 
	C30.209436,105.685173 30.915022,106.844513 31.048161,108.677109 
	C29.788643,108.191368 29.114765,107.019493 29.078091,105.125565 
z"/>
<path fill="#5BE113" opacity="1.000000" stroke="none" 
	d="
M54.130192,69.786972 
	C53.713196,69.225662 53.452202,68.437042 53.216072,67.332779 
	C54.383022,67.538361 54.931744,68.303520 54.130192,69.786972 
z"/>
<path fill="#5CE212" opacity="1.000000" stroke="none" 
	d="
M22.912777,64.790314 
	C22.084368,64.261101 21.223076,63.380146 20.193016,62.241364 
	C21.544905,62.140297 22.673243,62.753395 22.912777,64.790314 
z"/>
<path fill="#5CE212" opacity="1.000000" stroke="none" 
	d="
M31.968590,94.631973 
	C31.378695,94.178093 30.745377,93.403381 30.029913,92.332642 
	C31.075371,92.387520 31.751852,93.130615 31.968590,94.631973 
z"/>
<path fill="#5CE212" opacity="1.000000" stroke="none" 
	d="
M26.016521,72.888992 
	C25.656712,72.576744 25.422892,72.064499 25.156857,71.270752 
	C25.898052,71.295860 26.566025,71.665611 26.016521,72.888992 
z"/>
<path fill="#5CE212" opacity="1.000000" stroke="none" 
	d="
M29.896851,91.755753 
	C29.653450,91.555710 29.341278,91.076782 28.982082,90.310318 
	C29.232733,90.507477 29.530407,90.992172 29.896851,91.755753 
z"/>
<path fill="#3BB603" opacity="1.000000" stroke="none" 
	d="
M12.234588,55.046532 
	C11.983555,54.812397 11.993788,54.595776 12.016858,54.050873 
	C12.267058,53.997658 12.504422,54.272732 12.879471,54.780869 
	C12.843390,55.030632 12.669622,55.047337 12.234588,55.046532 
z"/>
<path fill="#47CE08" opacity="1.000000" stroke="none" 
	d="
M7.504761,48.506783 
	C7.486712,48.513336 7.522809,48.500229 7.504761,48.506783 
z"/>
<path fill="#3BB603" opacity="1.000000" stroke="none" 
	d="
M13.106831,55.200356 
	C13.281252,55.136047 13.536021,55.342213 13.880905,55.810524 
	C13.700706,55.886761 13.439425,55.686150 13.106831,55.200356 
z"/>
<path fill="#5CE212" opacity="1.000000" stroke="none" 
	d="
M33.823051,96.975830 
	C33.720142,96.942963 33.474438,96.682854 33.095188,96.189011 
	C33.201180,96.219719 33.440720,96.484154 33.823051,96.975830 
z"/>
<path fill="#C20C0F" opacity="1.000000" stroke="none" 
	d="
M283.988586,77.393463 
	C298.490723,86.596687 299.656311,101.365112 287.151215,112.217087 
	C281.816925,116.846214 275.586578,119.872688 268.541687,122.080765 
	C267.839569,122.215012 267.504089,122.305115 266.746643,122.089630 
	C272.496399,118.629944 278.758087,115.670547 283.902893,110.813835 
	C292.663818,102.543503 293.829559,95.172134 287.717926,84.752457 
	C286.549408,82.760307 285.228607,80.857483 283.845093,78.596161 
	C283.650574,77.977432 283.589050,77.675995 283.988586,77.393463 
z"/>
<path fill="#EE4749" opacity="1.000000" stroke="none" 
	d="
M266.211456,51.808006 
	C266.485016,52.244301 266.445465,52.467468 266.284851,53.009048 
	C265.051666,54.733070 263.748535,55.902039 261.793884,56.826958 
	C261.505096,57.032318 261.522736,57.011745 261.521423,57.000031 
	C259.635132,57.897713 257.603912,57.304451 255.328461,57.830780 
	C252.674408,59.301170 250.391235,59.384068 247.866547,57.538597 
	C248.623642,53.956337 250.521774,51.287228 253.678772,49.153255 
	C254.422485,48.583645 255.008865,48.509277 255.759445,48.137493 
	C255.953094,47.920185 255.953018,47.941601 255.939331,47.929482 
	C259.640411,48.084103 263.786713,47.080688 266.211456,51.808006 
z"/>
<path fill="#C20C0F" opacity="1.000000" stroke="none" 
	d="
M230.269562,67.869400 
	C232.140991,61.690823 234.420746,60.495960 243.219482,61.341171 
	C238.571564,63.838058 234.698990,65.918419 230.269562,67.869400 
z"/>
<path fill="#B21219" opacity="1.000000" stroke="none" 
	d="
M198.239532,70.289215 
	C199.979141,65.948395 203.525665,67.481857 207.038452,67.533096 
	C205.000916,72.594078 203.056137,73.229668 198.239532,70.289215 
z"/>
<path fill="#CD1C1C" opacity="1.000000" stroke="none" 
	d="
M265.981934,121.802246 
	C266.633148,121.838982 266.941620,121.893929 267.712555,122.036880 
	C264.935730,123.853981 261.455170,124.603943 256.505127,125.042053 
	C260.057373,122.737022 262.962311,122.591049 265.981934,121.802246 
z"/>
<path fill="#A71E1F" opacity="1.000000" stroke="none" 
	d="
M255.409225,58.049179 
	C256.731598,56.959778 258.719055,57.210052 261.076385,57.024639 
	C259.728363,57.943192 257.753876,57.863960 255.409225,58.049179 
z"/>
<path fill="#CD1C1C" opacity="1.000000" stroke="none" 
	d="
M282.117249,76.287323 
	C280.899567,75.947861 279.808624,75.481033 280.141510,74.774330 
	C280.658081,73.677727 281.363495,74.733849 282.065277,75.334213 
	C282.318970,75.829460 282.445068,76.114540 282.117249,76.287323 
z"/>
<path fill="#AE1517" opacity="1.000000" stroke="none" 
	d="
M288.737244,136.807510 
	C288.135468,136.817947 287.305847,136.588608 286.231049,136.138977 
	C286.827026,136.135025 287.668213,136.351379 288.737244,136.807510 
z"/>
<path fill="#EE4749" opacity="1.000000" stroke="none" 
	d="
M232.030624,58.269463 
	C232.159531,58.078342 232.327911,58.038311 232.751114,58.047310 
	C232.828751,58.593369 232.663788,59.125671 232.030624,58.269463 
z"/>
<path fill="#AE1517" opacity="1.000000" stroke="none" 
	d="
M291.957611,138.645538 
	C291.597321,138.674118 291.046783,138.467865 290.289001,138.046249 
	C290.643616,138.024170 291.205505,138.217438 291.957611,138.645538 
z"/>
<path fill="#C20C0F" opacity="1.000000" stroke="none" 
	d="
M283.148804,77.314865 
	C282.486450,77.044746 282.227997,76.818939 281.816467,76.384071 
	C281.663361,76.175018 281.951416,75.882408 282.072144,75.713394 
	C282.498779,75.747238 282.804657,75.950111 283.300964,76.350883 
	C283.511871,76.818916 283.532318,77.089043 283.148804,77.314865 
z"/>
<path fill="#EE4749" opacity="1.000000" stroke="none" 
	d="
M228.725250,58.826401 
	C228.757034,58.670372 229.044159,58.426788 229.615265,58.190830 
	C229.593018,58.378586 229.286804,58.558720 228.725250,58.826401 
z"/>
<path fill="#C20C0F" opacity="1.000000" stroke="none" 
	d="
M283.302521,76.726868 
	C283.733704,76.708618 283.958588,76.890038 284.307861,77.252701 
	C284.331207,77.560188 284.212738,77.708015 283.903198,78.067352 
	C283.437866,78.117599 283.201233,77.912888 282.873535,77.467636 
	C282.867767,77.148697 282.990692,77.026825 283.302521,76.726868 
z"/>
<path fill="#B21219" opacity="1.000000" stroke="none" 
	d="
M195.444550,73.479462 
	C195.408295,73.484024 195.376526,73.371132 195.402985,73.397247 
	C195.429459,73.423363 195.480804,73.474892 195.444550,73.479462 
z"/>
<path fill="#C20C0F" opacity="1.000000" stroke="none" 
	d="
M230.036942,68.056702 
	C229.854568,68.370720 229.558075,68.598343 229.631622,67.851913 
	C229.712708,67.740005 229.929443,67.950546 230.036942,68.056702 
z"/>
<path fill="#AE1517" opacity="1.000000" stroke="none" 
	d="
M290.006653,137.649643 
	C289.802368,137.807999 289.515015,137.662369 289.120361,137.239380 
	C289.273285,137.175278 289.576782,137.303162 290.006653,137.649643 
z"/>
<path fill="#AE1517" opacity="1.000000" stroke="none" 
	d="
M293.933472,139.744095 
	C293.736145,139.917786 293.440094,139.789520 293.009033,139.400726 
	C293.157715,139.325256 293.477966,139.425903 293.933472,139.744095 
z"/>
<path fill="#AE1517" opacity="1.000000" stroke="none" 
	d="
M302.438416,167.931976 
	C302.180054,164.056778 302.136383,159.885330 302.161804,155.229935 
	C303.802643,158.995697 303.956238,163.291840 302.438416,167.931976 
z"/>
<path fill="#AE1517" opacity="1.000000" stroke="none" 
	d="
M299.254852,171.965240 
	C299.366669,171.652725 299.753326,171.301208 300.389404,170.863556 
	C300.269104,171.160355 299.899414,171.543289 299.254852,171.965240 
z"/>
<path fill="#AE1517" opacity="1.000000" stroke="none" 
	d="
M302.049988,153.729828 
	C301.762726,153.512436 301.483215,152.989655 301.208923,152.163788 
	C301.495361,152.381943 301.776550,152.903183 302.049988,153.729828 
z"/>
<path fill="#AE1517" opacity="1.000000" stroke="none" 
	d="
M301.210114,151.523132 
	C300.588165,151.558853 300.384613,151.042404 300.593048,150.151276 
	C300.843170,150.353149 301.013947,150.769150 301.210114,151.523132 
z"/>
<path fill="#AE1517" opacity="1.000000" stroke="none" 
	d="
M294.205872,174.839966 
	C294.147583,174.627365 294.375427,174.415558 294.876251,174.182159 
	C294.974060,174.424240 294.754974,174.650970 294.205872,174.839966 
z"/>
<path fill="#AE1517" opacity="1.000000" stroke="none" 
	d="
M296.191132,173.803497 
	C296.162598,173.584396 296.424927,173.397949 296.966003,173.213776 
	C296.949341,173.364899 296.695129,173.571609 296.191132,173.803497 
z"/>
<path fill="#40C107" opacity="1.000000" stroke="none" 
	d="
M34.346291,122.956787 
	C34.490932,122.092918 34.991337,121.216461 35.750965,120.167709 
	C35.889732,120.783966 35.769272,121.572533 35.530354,122.625137 
	C35.175278,122.907524 34.938663,122.925865 34.346291,122.956787 
z"/>
<path fill="#F64B4B" opacity="1.000000" stroke="none" 
	d="
M300.856689,147.842789 
	C300.317383,148.434128 299.881226,148.037048 299.332428,147.308685 
	C299.705261,147.228546 300.210266,147.419189 300.856689,147.842789 
z"/>
<path fill="#A71E1F" opacity="1.000000" stroke="none" 
	d="
M255.658676,47.937393 
	C255.478943,48.245056 255.004807,48.569931 254.237244,48.922920 
	C254.417297,48.618896 254.890778,48.286755 255.658676,47.937393 
z"/>
<path fill="#51C119" opacity="1.000000" stroke="none" 
	d="
M105.737549,93.487900 
	C105.865105,91.539818 105.434059,89.153114 107.953415,89.299507 
	C109.102425,89.366280 109.609657,91.413643 109.404037,92.669792 
	C109.022179,95.002625 107.598274,95.163124 105.737549,93.487900 
z"/>
</svg>