<svg version="1.1" id="Layer_1" xmlns="http://www.w3.org/2000/svg" xmlns:xlink="http://www.w3.org/1999/xlink" x="0px" y="0px"
	 width="100%" viewBox="0 0 313 200" enable-background="new 0 0 313 200" xml:space="preserve">
<path fill="#0B290A" opacity="1.000000" stroke="none" 
	d="
M260.000000,201.000000 
	C195.312439,201.000000 130.624878,201.000000 65.409340,200.546753 
	C65.558388,193.747925 64.154549,187.879410 60.869465,182.429291 
	C56.354633,174.938965 54.972919,166.726486 54.777397,158.092026 
	C54.676964,153.656616 53.845638,149.159698 52.734047,144.847961 
	C51.691761,140.805069 49.895378,136.925552 44.913925,135.634583 
	C44.305065,134.958755 43.849285,134.549591 43.318329,133.860367 
	C42.823265,132.746933 42.403385,131.913574 41.891235,130.705505 
	C41.595863,128.565674 41.392761,126.800514 41.492409,124.894348 
	C42.293724,124.104698 42.753159,123.421082 43.297012,122.812958 
	C47.869839,117.699631 52.181114,112.308983 57.135574,107.595070 
	C60.654922,104.246590 64.255234,104.891922 67.442001,108.455772 
	C70.265953,111.613884 72.945747,114.900894 75.818481,118.450974 
	C76.886169,120.541046 77.824547,122.311150 78.793503,124.422279 
	C79.498528,125.934280 80.172981,127.105263 80.883980,128.465012 
	C80.920525,128.653778 81.170441,128.946060 81.200958,129.332886 
	C82.756866,134.600281 83.982178,139.605194 85.931458,144.310150 
	C86.939865,146.744125 89.369461,150.561905 90.920326,150.450821 
	C97.041550,150.012344 105.173027,150.254822 108.664337,146.562393 
	C114.700043,140.178986 117.834694,131.052551 122.469238,122.884605 
	C126.121872,118.198479 126.972626,113.362335 124.722519,107.660545 
	C124.690834,105.422913 124.670525,103.631149 124.911636,101.572510 
	C125.984062,97.916634 126.994377,94.559937 127.550217,91.129608 
	C128.111069,87.668350 129.854324,86.646996 133.390488,87.737953 
	C135.867950,87.774872 138.010406,87.670593 140.316223,87.600250 
	C140.724609,87.555290 140.849823,87.386993 141.158844,86.994980 
	C141.662048,86.764946 141.861633,86.669228 142.252594,86.603943 
	C142.722626,86.574028 142.909073,86.409264 143.345886,86.031296 
	C146.325745,84.525536 148.963058,83.128540 151.942383,81.721405 
	C154.885986,79.922462 155.570404,78.071106 151.779221,77.326584 
	C144.956772,75.986771 138.060837,75.021095 130.987213,73.622055 
	C130.275711,72.459877 129.772583,71.574760 128.904037,70.046776 
	C131.757507,70.046776 133.848633,70.046776 136.216675,70.326813 
	C138.458145,70.926628 140.437973,71.173073 142.384659,71.578690 
	C151.517303,73.481590 160.044357,73.507301 167.105225,65.821457 
	C170.555725,62.065540 171.904144,57.325981 169.935822,52.758141 
	C165.532730,56.576763 161.124374,60.726658 156.362137,64.420280 
	C152.931717,67.080948 148.896057,67.451111 145.305908,64.552200 
	C142.383591,62.192513 139.781281,59.436516 136.909393,56.589737 
	C135.926056,55.520725 135.070419,54.718231 134.055161,53.586403 
	C131.669250,52.156544 129.477341,50.231129 127.209114,50.136597 
	C123.167046,49.968136 119.078842,50.906563 114.739250,51.160645 
	C110.707130,47.583496 106.945702,44.227798 103.043213,40.561806 
	C93.653831,34.421322 84.405502,28.591133 74.948357,22.493975 
	C65.855713,18.790651 57.201038,13.444945 48.036797,12.345104 
	C32.527443,10.483757 16.696020,11.305983 1.000000,11.000000 
	C1.000000,7.670767 1.000000,4.341535 1.000000,1.051009 
	C105.333344,1.051009 209.666687,1.051009 314.000000,1.051009 
	C314.000000,11.755572 314.000000,22.409128 313.893036,33.861954 
	C308.756866,41.044804 301.667023,43.559368 294.069275,43.475967 
	C281.677551,43.339954 269.612457,44.039909 258.189667,49.475712 
	C257.303162,49.897572 254.693298,48.876110 254.396317,48.008152 
	C252.329514,41.967991 247.466782,44.222141 243.473297,44.028782 
	C239.285675,43.826031 237.171829,46.361568 235.863770,50.244308 
	C235.416245,50.938187 235.161301,51.429245 234.453278,52.024574 
	C230.527817,52.260502 226.975845,51.980225 223.603912,52.631718 
	C219.694855,53.386990 215.943954,54.960827 212.062073,56.223049 
	C211.999741,56.266766 212.051773,56.409843 211.724335,56.438068 
	C209.255112,59.256886 207.113312,62.047478 204.579987,65.000122 
	C203.111954,65.454338 202.035461,65.746513 200.972015,66.034103 
	C200.985092,66.029510 200.981018,66.057152 200.863129,65.681625 
	C199.005157,65.001213 197.265091,64.696335 195.356110,64.377075 
	C194.960754,64.352669 194.735168,64.362389 194.051666,64.242905 
	C189.719025,64.134621 185.272873,62.650730 183.132599,68.304497 
	C182.702850,69.227959 182.506912,69.779625 182.226349,70.274246 
	C182.141708,70.217201 182.044678,70.479355 182.044678,70.479355 
	C182.044678,70.479355 182.262878,70.546097 182.271210,70.954605 
	C183.298264,73.116028 184.317001,74.868950 185.393677,76.965637 
	C186.394714,77.700394 187.337799,78.091377 188.339691,78.535469 
	C188.398514,78.588577 188.548553,78.639610 188.564667,79.009529 
	C189.081055,81.143433 189.581345,82.907410 190.219330,85.011765 
	C195.828751,86.550293 198.519699,90.651917 201.025009,95.173767 
	C207.460892,106.789963 206.904022,112.457077 198.779999,118.107445 
	C199.331635,120.289825 199.894653,122.290901 200.335388,124.318565 
	C200.874969,126.801025 201.312134,129.305740 201.793594,131.800842 
	C204.497131,130.840759 207.241638,129.978882 209.885712,128.876236 
	C211.081024,128.377762 212.036163,127.333061 213.169769,126.651833 
	C218.508774,123.443428 224.121735,122.261185 230.307159,123.938278 
	C235.867554,125.445915 241.521988,126.606758 247.190353,128.053131 
	C247.245773,128.185684 247.646515,128.308807 247.646515,128.308807 
	C247.646515,128.308807 247.988998,128.108719 248.257324,128.203049 
	C248.900238,128.353058 249.274811,128.408737 249.887085,128.756714 
	C256.193542,129.946289 262.262360,130.843552 268.493225,131.772797 
	C268.655304,131.804779 268.985687,131.808670 269.257843,132.034027 
	C278.772064,135.876892 284.767883,142.077484 287.034332,152.123367 
	C289.029938,160.968796 287.831299,165.106491 280.503601,170.254517 
	C273.770081,174.985092 267.136230,179.876846 260.686798,184.985809 
	C256.265350,188.488297 255.996414,192.001099 259.096954,195.913651 
	C259.029175,195.909454 259.165375,195.892914 259.091522,196.265137 
	C259.345123,198.091568 259.672546,199.545776 260.000000,201.000000 
z"/>
<path fill="#5AEA09" opacity="1.000000" stroke="none" 
	d="
M0.999998,166.000000 
	C1.000000,115.979103 1.000000,65.958206 1.467296,15.428223 
	C15.993891,15.607315 30.113029,15.726954 44.089920,17.198088 
	C52.401134,18.072884 60.488510,21.074312 68.877136,23.403900 
	C80.005997,30.238852 90.934242,36.789536 101.977943,43.645962 
	C103.956917,45.538910 105.715851,47.274036 107.706421,48.681568 
	C111.486259,51.354267 113.993378,53.958408 113.206238,59.518383 
	C112.008347,67.979683 116.579109,73.380867 124.081161,74.561554 
	C124.811554,78.303299 125.447083,81.667763 126.013489,85.367249 
	C125.602119,86.789459 125.259872,87.876663 124.588867,89.100571 
	C122.432213,89.840889 120.604294,90.444504 118.601227,90.776825 
	C117.679550,89.169174 116.933029,87.832802 116.186508,86.496429 
	C115.686905,86.522148 115.187302,86.547867 114.687698,86.573586 
	C113.528412,90.762314 112.117889,94.907997 111.387581,99.170227 
	C111.206383,100.227730 112.996574,102.272530 114.297195,102.766434 
	C115.846985,103.354950 117.845352,102.762177 119.952805,102.841278 
	C120.593651,104.004982 121.077309,104.985138 121.242676,106.016335 
	C121.887299,110.036064 122.431068,114.071983 122.991028,118.411819 
	C122.924461,119.134651 122.879204,119.547523 122.676331,120.113815 
	C122.316353,120.481369 122.136215,120.712814 121.906937,121.218483 
	C121.793877,121.648216 121.752190,121.821030 121.573944,122.155876 
	C121.261253,122.540771 121.103485,122.775948 120.704041,123.234200 
	C120.075356,123.781586 119.642410,124.069977 119.347992,124.462318 
	C116.411156,128.375900 115.712234,134.341278 109.333588,135.170624 
	C108.805756,135.239258 108.204636,137.156052 108.176552,138.228256 
	C108.069519,142.314819 106.949532,145.591263 102.270042,146.029602 
	C98.498566,146.382904 94.698067,146.495728 90.909294,146.517639 
	C90.362686,146.520782 89.597076,145.508224 89.294426,144.809143 
	C87.461021,140.574173 85.732635,136.293732 84.162903,131.720963 
	C83.900543,129.274948 83.650665,127.065178 82.941803,125.014030 
	C81.768326,121.618515 80.299171,118.325172 78.959122,114.977631 
	C78.963638,114.966469 78.986954,114.960495 79.062973,114.851830 
	C79.227180,114.468323 79.160843,114.231544 78.665787,113.992294 
	C77.899666,113.709747 77.407730,113.467743 76.863373,112.881935 
	C75.869026,110.346954 74.927124,108.155785 73.888641,105.657104 
	C72.515678,104.214951 71.239288,103.080284 70.194641,101.738800 
	C74.785660,97.550186 70.288673,96.490158 68.108849,94.273270 
	C68.418747,90.339607 68.775795,86.782791 69.391983,83.010071 
	C73.747246,78.741318 77.324432,73.827454 84.382828,74.293457 
	C89.226936,75.752853 93.118111,74.501945 96.550568,70.969460 
	C93.350868,71.318207 90.151169,71.666954 86.517822,72.004776 
	C84.062614,71.968613 82.041054,71.943375 79.780891,71.674896 
	C77.988297,68.844154 76.434296,66.256653 74.845718,63.611591 
	C73.484505,64.732239 72.426399,65.603348 70.939209,66.827705 
	C70.245331,64.043526 69.691162,61.819916 69.136986,59.596306 
	C68.705894,59.573666 68.274796,59.551025 67.843704,59.528389 
	C67.305878,61.141407 66.488998,62.721088 66.291466,64.374756 
	C65.939232,67.323570 66.203926,70.352844 65.772171,73.283882 
	C65.050415,78.183640 62.634102,79.275330 58.294426,76.541748 
	C58.147266,74.764153 58.072083,73.393021 58.112610,71.829971 
	C57.918789,71.082130 57.609253,70.526199 57.251442,69.567337 
	C57.118626,67.815117 57.034081,66.465828 56.841835,64.827591 
	C55.897671,64.638329 54.353077,64.662956 54.333340,64.849182 
	C54.115124,66.908173 54.133595,68.992241 54.085838,71.440475 
	C53.788155,73.232185 53.492653,74.652946 52.829544,76.156357 
	C47.609509,80.897362 48.589748,86.437866 50.055817,92.397255 
	C49.725925,93.832291 49.410301,94.924072 48.761440,96.051315 
	C48.097935,97.161713 47.767666,98.236649 47.421501,99.685005 
	C47.258533,101.043686 47.111458,102.028938 46.663658,102.933861 
	C45.229492,102.481071 44.096054,102.108620 42.833691,101.693810 
	C42.833691,104.117035 42.833691,106.085205 42.833691,108.553780 
	C40.395084,107.022949 38.778934,106.008415 37.071354,104.665230 
	C35.966118,102.609932 34.952312,100.883293 33.927284,98.780090 
	C32.650101,96.595779 31.384132,94.788017 30.073160,92.665077 
	C29.995060,91.926834 29.961964,91.503784 30.139153,90.726181 
	C30.726913,86.357002 33.038342,81.959770 28.056553,78.673248 
	C27.990749,77.914963 27.967522,77.480392 28.108246,76.809288 
	C27.862913,75.712563 27.453630,74.852371 26.969662,73.652939 
	C26.235235,71.605774 25.575497,69.897835 24.907581,67.821411 
	C23.894361,66.336418 22.889317,65.219910 21.936749,64.056931 
	C21.989223,64.010460 21.880564,64.106750 21.879013,63.738621 
	C19.292610,59.274437 16.707760,55.178383 14.053572,50.972458 
	C9.996113,52.492554 9.164303,54.550922 11.343908,58.436420 
	C13.427265,62.150341 15.331197,65.972305 17.576981,69.583221 
	C18.252256,70.668976 19.807835,71.207245 21.074574,72.382126 
	C21.853216,76.693329 22.360100,80.653313 23.214132,84.536949 
	C25.035435,92.819183 23.487900,102.047890 30.019897,109.393127 
	C31.294397,111.502380 32.535942,113.255058 33.794403,115.340271 
	C33.810024,116.116646 33.808723,116.560493 33.514175,117.184479 
	C30.852316,121.061089 30.159176,124.920265 32.093086,129.355392 
	C32.079708,130.104797 32.060905,130.532867 32.020542,131.353180 
	C31.034977,136.232407 30.070974,140.719345 29.082994,145.409058 
	C29.059015,145.611801 28.956064,146.006927 28.601835,146.037933 
	C25.515852,148.733444 22.784098,151.397949 20.024006,154.038574 
	C19.995665,154.014664 20.057127,154.050705 19.678398,154.069092 
	C13.606413,156.039062 7.865590,157.845947 4.331835,163.375488 
	C3.612823,164.500580 2.130461,165.137848 0.999998,166.000000 
M97.112099,136.893723 
	C97.112099,134.217545 97.112099,131.541382 97.112099,128.492340 
	C93.304192,131.776657 93.448219,136.457657 97.419281,141.315033 
	C97.330055,139.754669 97.269775,138.700500 97.112099,136.893723 
z"/>
<path fill="#FC4D4D" opacity="1.000000" stroke="none" 
	d="
M194.510437,64.391846 
	C194.735168,64.362389 194.960754,64.352669 195.603958,64.652390 
	C197.674149,65.313774 199.327591,65.685463 200.981018,66.057152 
	C200.981018,66.057152 200.985092,66.029510 201.082764,66.305206 
	C202.445969,66.706741 203.711502,66.832581 205.190643,67.123398 
	C206.411896,66.926384 208.015732,66.835831 208.325256,66.155998 
	C209.763657,62.996613 210.843567,59.674026 212.051773,56.409843 
	C212.051773,56.409843 211.999741,56.266766 212.443665,56.254738 
	C213.895172,56.133244 214.902771,56.023773 216.083557,55.864395 
	C216.480377,55.728565 216.685318,55.610268 217.214874,55.431770 
	C218.017105,55.407833 218.476013,55.411732 218.998886,55.539391 
	C219.396057,55.559738 219.729263,55.456326 220.519165,55.283493 
	C225.578217,55.011990 230.180588,54.809902 235.107880,54.865837 
	C237.975586,55.092323 240.518387,55.060787 243.444763,54.992371 
	C245.099213,54.915131 246.370117,54.874775 247.875977,54.789253 
	C248.422699,54.660778 248.710495,54.526218 249.299988,54.235527 
	C250.429413,53.752960 251.233200,53.375275 252.019409,52.986969 
	C252.001816,52.976353 251.995926,53.014687 252.411758,53.049938 
	C254.923981,52.630966 257.289795,52.651684 259.070770,51.641457 
	C267.408569,46.912037 276.339142,46.201500 285.606079,46.975609 
	C288.083160,47.182537 290.593109,47.060387 293.085938,47.001743 
	C301.258453,46.809467 308.304718,43.965183 314.000000,38.000000 
	C314.000000,76.020897 314.000000,114.041786 313.696228,152.374954 
	C305.604095,148.593857 297.935913,144.246780 289.990875,140.484283 
	C283.153107,137.246155 275.999603,134.674820 268.985687,131.808670 
	C268.985687,131.808670 268.655304,131.804779 268.178894,131.546631 
	C261.684753,130.347137 255.667084,129.405762 249.649399,128.464401 
	C249.274811,128.408737 248.900238,128.353058 248.058167,128.093964 
	C247.590668,127.890556 247.134933,127.920570 247.134933,127.920570 
	C241.521988,126.606758 235.867554,125.445915 230.307159,123.938278 
	C224.121735,122.261185 218.508774,123.443428 213.169769,126.651833 
	C212.036163,127.333061 211.081024,128.377762 209.885712,128.876236 
	C207.241638,129.978882 204.497131,130.840759 201.793594,131.800842 
	C201.312134,129.305740 200.874969,126.801025 200.335388,124.318565 
	C199.894653,122.290901 199.331635,120.289825 198.779999,118.107445 
	C206.904022,112.457077 207.460892,106.789963 201.025009,95.173767 
	C198.519699,90.651917 195.828751,86.550293 190.313904,84.725693 
	C189.696701,82.279366 189.122620,80.459488 188.548553,78.639610 
	C188.548553,78.639610 188.398514,78.588577 188.189545,78.273773 
	C187.098953,77.513275 186.217346,77.067574 185.335739,76.621872 
	C184.317001,74.868950 183.298264,73.116028 182.334351,70.915100 
	C182.389175,70.467094 182.310989,70.331284 182.310989,70.331284 
	C182.506912,69.779625 182.702850,69.227959 183.507019,68.326828 
	C190.819595,69.986488 192.219727,69.503555 194.510437,64.391846 
M270.006714,74.660133 
	C270.205688,74.907997 270.441803,75.113022 270.985260,75.903587 
	C272.074463,77.575493 273.209106,79.219742 274.245453,80.923775 
	C281.007385,92.042175 280.145813,99.678886 270.275513,108.188744 
	C265.545105,112.267143 259.902588,115.287666 254.673187,118.787300 
	C254.904541,119.218704 255.135895,119.650108 255.367264,120.081520 
	C261.458740,116.620438 268.092865,113.848289 273.534302,109.561989 
	C286.912964,99.023422 285.782715,84.140724 271.159302,74.106514 
	C270.949768,73.901367 270.722504,73.718239 270.139679,73.341621 
	C270.009399,73.649971 269.879150,73.958328 270.006714,74.660133 
M217.832642,65.003220 
	C221.709579,62.916935 225.586517,60.830650 230.223221,58.335510 
	C221.411682,57.492641 219.139893,58.680637 216.546738,64.965111 
	C216.748413,65.033539 216.950104,65.101967 217.832642,65.003220 
z"/>
<path fill="#FA4D4D" opacity="1.000000" stroke="none" 
	d="
M314.000000,156.000000 
	C314.000000,170.000000 314.020325,184.000076 313.965668,197.999863 
	C313.960693,199.269760 315.085022,201.612228 311.337097,200.674866 
	C302.595184,197.420944 294.701019,193.686737 285.309937,194.070267 
	C285.578979,196.771957 285.789490,198.885971 286.000000,201.000000 
	C278.645752,201.000000 271.291504,201.000000 263.295105,200.728973 
	C261.490448,198.936279 260.327911,197.414597 259.165375,195.892914 
	C259.165375,195.892914 259.029175,195.909454 259.117828,195.556717 
	C259.887695,192.502869 259.675903,188.723129 261.406921,187.290009 
	C268.378571,181.518036 275.652466,175.973846 283.403564,171.327896 
	C288.731903,168.134125 291.216492,164.116135 290.610138,158.371719 
	C290.144684,153.961990 288.690521,149.656631 287.808136,145.172272 
	C287.940186,145.039673 288.202759,144.772949 288.563385,144.835480 
	C297.282684,148.598663 305.641327,152.299332 314.000000,156.000000 
z"/>
<path fill="#0B2B0A" opacity="1.000000" stroke="none" 
	d="
M29.999998,201.000000 
	C20.412355,201.000000 10.824710,201.000000 1.000000,201.000000 
	C1.000000,192.980667 1.000000,184.959015 1.182746,176.189911 
	C7.946673,168.197464 13.511997,159.800003 23.610714,156.270264 
	C35.274376,160.980026 41.476841,170.081024 44.979946,181.133850 
	C47.377922,188.699829 45.188446,193.386292 38.518299,196.971375 
	C35.432278,198.322327 32.716137,199.661163 29.999998,201.000000 
z"/>
<path fill="#5BEB0A" opacity="1.000000" stroke="none" 
	d="
M58.000000,201.000000 
	C52.645069,201.000000 47.290142,201.000000 41.432915,200.680359 
	C40.886131,199.934402 40.841644,199.508118 41.068283,198.858521 
	C43.769833,195.215607 48.147556,191.863037 48.267971,188.363937 
	C48.638958,177.583069 43.279659,168.568588 35.422310,161.500076 
	C32.003597,158.424591 29.582731,155.802582 31.188454,151.012253 
	C31.377880,150.946030 31.768604,150.854355 32.131035,150.805603 
	C34.592903,147.952255 37.948360,145.375198 38.506989,142.291458 
	C39.419346,137.255066 41.477409,137.262436 45.131363,138.860077 
	C45.158829,138.863922 45.155426,138.919266 45.121262,139.328766 
	C44.446808,143.867722 47.069168,146.029129 50.204556,148.348877 
	C50.647236,151.793869 50.939114,154.862015 51.080513,158.120422 
	C51.274727,158.883041 51.619415,159.455368 51.985199,160.393188 
	C52.030731,161.490448 52.055172,162.222229 51.877789,163.267700 
	C50.588776,166.570541 50.757042,169.209000 53.800617,171.474411 
	C53.929276,173.577850 54.020821,175.261536 53.907127,177.250702 
	C54.191143,179.334564 54.680389,181.112961 55.361908,183.181564 
	C58.436596,189.026077 62.580105,194.404419 58.000000,201.000000 
z"/>
<path fill="#AD1517" opacity="1.000000" stroke="none" 
	d="
M314.000000,155.625000 
	C305.641327,152.299332 297.282684,148.598663 288.443787,144.739655 
	C287.867706,144.822495 287.771881,145.063675 287.676086,145.304840 
	C288.690521,149.656631 290.144684,153.961990 290.610138,158.371719 
	C291.216492,164.116135 288.731903,168.134125 283.403564,171.327896 
	C275.652466,175.973846 268.378571,181.518036 261.406921,187.290009 
	C259.675903,188.723129 259.887695,192.502869 259.185608,195.560913 
	C255.996414,192.001099 256.265350,188.488297 260.686798,184.985809 
	C267.136230,179.876846 273.770081,174.985092 280.503601,170.254517 
	C287.831299,165.106491 289.029938,160.968796 287.034332,152.123367 
	C284.767883,142.077484 278.772064,135.876892 269.257843,132.034027 
	C275.999603,134.674820 283.153107,137.246155 289.990875,140.484283 
	C297.935913,144.246780 305.604095,148.593857 313.696228,152.843613 
	C314.000000,153.750000 314.000000,154.500000 314.000000,155.625000 
z"/>
<path fill="#419E12" opacity="1.000000" stroke="none" 
	d="
M68.676521,23.119629 
	C60.488510,21.074312 52.401134,18.072884 44.089920,17.198088 
	C30.113029,15.726954 15.993891,15.607315 1.467296,14.959566 
	C1.000000,13.933331 1.000000,12.866661 1.000000,11.399996 
	C16.696020,11.305983 32.527443,10.483757 48.036797,12.345104 
	C57.201038,13.444945 65.855713,18.790651 74.654114,22.677952 
	C72.604637,23.125811 70.640579,23.122719 68.676521,23.119629 
z"/>
<path fill="#4AB316" opacity="1.000000" stroke="none" 
	d="
M58.437500,201.000000 
	C62.580105,194.404419 58.436596,189.026077 55.339996,182.796997 
	C54.787991,180.396561 54.450176,178.670883 54.112362,176.945221 
	C54.020821,175.261536 53.929276,173.577850 53.779785,171.090912 
	C53.174435,167.843109 52.627022,165.398560 52.079613,162.953995 
	C52.055172,162.222229 52.030731,161.490448 51.950153,160.113251 
	C51.673008,158.955276 51.452000,158.442703 51.230995,157.930145 
	C50.939114,154.862015 50.647236,151.793869 50.197086,147.958832 
	C49.534889,143.770935 49.374928,140.146912 45.155426,138.919266 
	C45.155426,138.919266 45.158829,138.863922 45.128349,138.492645 
	C45.087585,137.381317 45.077297,136.641296 45.067009,135.901260 
	C49.895378,136.925552 51.691761,140.805069 52.734047,144.847961 
	C53.845638,149.159698 54.676964,153.656616 54.777397,158.092026 
	C54.972919,166.726486 56.354633,174.938965 60.869465,182.429291 
	C64.154549,187.879410 65.558388,193.747925 64.940681,200.546753 
	C62.958332,201.000000 60.916668,201.000000 58.437500,201.000000 
z"/>
<path fill="#A61F1F" opacity="1.000000" stroke="none" 
	d="
M314.000000,37.600006 
	C308.304718,43.965183 301.258453,46.809467 293.085938,47.001743 
	C290.593109,47.060387 288.083160,47.182537 285.606079,46.975609 
	C276.339142,46.201500 267.408569,46.912037 259.070770,51.641457 
	C257.289795,52.651684 254.923981,52.630966 252.472565,52.623501 
	C252.292709,45.547810 249.373703,43.180775 243.267807,45.544849 
	C240.749573,46.519840 238.696060,48.695068 236.337494,50.253643 
	C236.243820,50.182888 236.056381,50.041492 236.056381,50.041492 
	C237.171829,46.361568 239.285675,43.826031 243.473297,44.028782 
	C247.466782,44.222141 252.329514,41.967991 254.396317,48.008152 
	C254.693298,48.876110 257.303162,49.897572 258.189667,49.475712 
	C269.612457,44.039909 281.677551,43.339954 294.069275,43.475967 
	C301.667023,43.559368 308.756866,41.044804 313.893036,34.330612 
	C314.000000,35.066669 314.000000,36.133339 314.000000,37.600006 
z"/>
<path fill="#3CA90B" opacity="1.000000" stroke="none" 
	d="
M31.768604,150.854355 
	C31.768604,150.854355 31.377880,150.946030 30.899446,151.169830 
	C28.033251,152.977417 25.645491,154.561234 23.257725,156.145050 
	C13.511997,159.800003 7.946673,168.197464 1.182746,175.721252 
	C1.000000,174.285645 1.000000,172.571289 1.282711,170.253876 
	C7.729326,164.450775 13.893229,159.250748 20.057129,154.050705 
	C20.057127,154.050705 19.995665,154.014664 20.333282,153.904297 
	C23.432621,151.198273 26.194344,148.602600 28.956066,146.006927 
	C28.956064,146.006927 29.059015,145.611801 29.340549,145.163895 
	C32.450874,139.161377 35.279667,133.606781 38.298393,128.055450 
	C38.488331,128.058716 38.868050,128.071259 38.838150,128.468689 
	C36.461700,136.195541 34.115150,143.524948 31.768604,150.854355 
z"/>
<path fill="#3B1D0B" opacity="1.000000" stroke="none" 
	d="
M286.468628,201.000000 
	C285.789490,198.885971 285.578979,196.771957 285.309937,194.070267 
	C294.701019,193.686737 302.595184,197.420944 310.837097,200.674866 
	C302.979095,201.000000 294.958191,201.000000 286.468628,201.000000 
z"/>
<path fill="#5BE212" opacity="1.000000" stroke="none" 
	d="
M19.678402,154.069092 
	C13.893229,159.250748 7.729326,164.450775 1.282711,169.825409 
	C1.000000,168.933334 1.000000,167.866653 0.999998,166.399994 
	C2.130461,165.137848 3.612823,164.500580 4.331835,163.375488 
	C7.865590,157.845947 13.606413,156.039062 19.678402,154.069092 
z"/>
<path fill="#349A14" opacity="1.000000" stroke="none" 
	d="
M40.797150,199.081818 
	C40.841644,199.508118 40.886131,199.934402 40.965309,200.680359 
	C37.638714,201.000000 34.277424,201.000000 30.458067,201.000000 
	C32.716137,199.661163 35.432278,198.322327 38.745987,197.146393 
	C39.828091,197.900131 40.312618,198.490982 40.797150,199.081818 
z"/>
<path fill="#AD1517" opacity="1.000000" stroke="none" 
	d="
M259.091522,196.265137 
	C260.327911,197.414597 261.490448,198.936279 262.826477,200.728973 
	C262.250000,201.000000 261.500000,201.000000 260.375000,201.000000 
	C259.672546,199.545776 259.345123,198.091568 259.091522,196.265137 
z"/>
<path fill="#3F9F0F" opacity="1.000000" stroke="none" 
	d="
M76.915802,113.225739 
	C77.407730,113.467743 77.899666,113.709747 78.675964,114.224167 
	C78.960327,114.496590 78.986954,114.960495 78.986954,114.960495 
	C78.986954,114.960495 78.963638,114.966469 78.625175,115.052887 
	C77.420868,116.136543 76.555023,117.133774 75.689178,118.131012 
	C72.945747,114.900894 70.265953,111.613884 67.442001,108.455772 
	C64.255234,104.891922 60.654922,104.246590 57.135574,107.595070 
	C52.181114,112.308983 47.869839,117.699631 43.297012,122.812958 
	C42.753159,123.421082 42.293724,124.104698 41.236893,124.701950 
	C40.865509,122.127769 41.052391,119.604965 41.446335,116.808701 
	C43.423729,112.028229 45.194057,107.521210 46.964386,103.014198 
	C47.111458,102.028938 47.258533,101.043686 47.670464,99.488792 
	C48.321774,97.951393 48.708225,96.983627 49.094677,96.015854 
	C49.410301,94.924072 49.725925,93.832291 50.231239,92.236557 
	C50.637749,91.500893 50.842659,91.259094 51.328217,90.928070 
	C54.062469,89.796913 53.907867,88.475952 52.032097,86.594444 
	C52.380188,84.480453 52.718159,82.747665 53.371796,80.954430 
	C55.456573,81.933868 57.225681,82.973763 59.225105,84.199066 
	C60.356865,84.261765 61.258312,84.139046 62.478344,83.967850 
	C63.493134,83.190048 64.189339,82.460732 64.956238,81.480927 
	C65.318108,80.805008 65.609299,80.379578 66.259903,80.016876 
	C67.457161,81.128395 68.295006,82.177193 69.132843,83.225983 
	C68.775795,86.782791 68.418747,90.339607 68.139267,94.675659 
	C68.798859,97.618484 69.380875,99.782051 69.962891,101.945625 
	C71.239288,103.080284 72.515678,104.214951 73.614655,105.847786 
	C70.398865,110.761772 74.448997,111.593468 76.915802,113.225739 
z"/>
<path fill="#3DA40F" opacity="1.000000" stroke="none" 
	d="
M123.986305,74.184280 
	C116.579109,73.380867 112.008347,67.979683 113.206238,59.518383 
	C113.993378,53.958408 111.486259,51.354267 107.706421,48.681568 
	C105.715851,47.274036 103.956917,45.538910 102.087616,43.304134 
	C102.449318,42.061741 102.816795,41.466923 103.184265,40.872101 
	C106.945702,44.227798 110.707130,47.583496 114.938980,51.432076 
	C121.677849,52.588554 127.946312,53.252148 134.214767,53.915741 
	C135.070419,54.718231 135.926056,55.520725 136.904449,57.004448 
	C137.019318,58.788372 137.011459,59.891060 136.721878,60.813385 
	C133.490433,58.487175 130.683624,56.098503 127.554672,54.257225 
	C123.683273,51.979038 119.275986,53.620808 118.229248,56.938572 
	C117.071419,60.608437 118.334976,65.207298 119.156670,69.277901 
	C119.693527,71.937462 122.048920,72.437843 124.239044,70.821739 
	C128.436401,67.724503 133.119858,67.407974 137.827271,68.181946 
	C137.064957,68.948097 136.502365,69.497437 135.939774,70.046776 
	C133.848633,70.046776 131.757507,70.046776 128.904037,70.046776 
	C129.772583,71.574760 130.275711,72.459877 130.958176,73.878380 
	C131.120209,74.582909 131.102875,74.754044 130.796875,75.067810 
	C128.358261,79.955978 129.529877,84.018417 133.055466,87.596764 
	C129.854324,86.646996 128.111069,87.668350 127.550217,91.129608 
	C126.994377,94.559937 125.984062,97.916634 124.736191,101.229965 
	C124.505417,97.090836 124.711517,93.027351 124.917618,88.963867 
	C125.259872,87.876663 125.602119,86.789459 126.204781,85.009758 
	C126.368248,80.761177 129.895401,76.318504 123.986305,74.184280 
z"/>
<path fill="#3EB11A" opacity="1.000000" stroke="none" 
	d="
M137.003601,60.993752 
	C137.011459,59.891060 137.019318,58.788372 137.032120,57.270966 
	C139.781281,59.436516 142.383591,62.192513 145.305908,64.552200 
	C148.896057,67.451111 152.931717,67.080948 156.362137,64.420280 
	C161.124374,60.726658 165.532730,56.576763 169.935822,52.758141 
	C171.904144,57.325981 170.555725,62.065540 167.105225,65.821457 
	C160.044357,73.507301 151.517303,73.481590 142.384659,71.578690 
	C140.437973,71.173073 138.458145,70.926628 136.216675,70.326813 
	C136.502365,69.497437 137.064957,68.948097 138.244049,68.186768 
	C141.781570,68.559494 144.698486,69.165459 147.624283,69.724945 
	C156.828735,71.485092 164.101089,67.798782 166.871475,59.527927 
	C165.037552,60.708504 163.398331,62.134655 161.837646,63.642109 
	C154.575684,70.656349 145.660187,70.129456 138.771820,62.038338 
	C138.052124,61.540287 137.528992,61.268963 137.002960,60.998985 
	C137.000061,61.000336 137.003601,60.993752 137.003601,60.993752 
z"/>
<path fill="#45C223" opacity="1.000000" stroke="none" 
	d="
M83.969162,132.028488 
	C85.732635,136.293732 87.461021,140.574173 89.294426,144.809143 
	C89.597076,145.508224 90.362686,146.520782 90.909294,146.517639 
	C94.698067,146.495728 98.498566,146.382904 102.270042,146.029602 
	C106.949532,145.591263 108.069519,142.314819 108.176552,138.228256 
	C108.204636,137.156052 108.805756,135.239258 109.333588,135.170624 
	C115.712234,134.341278 116.411156,128.375900 119.347992,124.462318 
	C119.642410,124.069977 120.075356,123.781586 120.890594,123.216568 
	C121.337173,122.988174 121.706352,122.930298 121.823837,122.975159 
	C121.941330,123.020027 122.186363,123.076836 122.186371,123.076843 
	C117.834694,131.052551 114.700043,140.178986 108.664337,146.562393 
	C105.173027,150.254822 97.041550,150.012344 90.920326,150.450821 
	C89.369461,150.561905 86.939865,146.744125 85.931458,144.310150 
	C83.982178,139.605194 82.756866,134.600281 81.478714,129.451752 
	C82.473694,130.132034 83.221428,131.080261 83.969162,132.028488 
z"/>
<path fill="#52DB1E" opacity="1.000000" stroke="none" 
	d="
M133.390488,87.737953 
	C129.529877,84.018417 128.358261,79.955978 131.117706,75.219833 
	C137.446518,76.485954 143.159485,77.772728 148.889206,78.979950 
	C150.476013,79.314278 153.153839,78.377449 151.600388,81.731552 
	C148.963058,83.128540 146.325745,84.525536 143.163818,86.036530 
	C142.388062,86.211617 142.195404,86.352615 142.061203,86.573517 
	C141.861633,86.669228 141.662048,86.764946 141.008469,87.000534 
	C140.342606,87.208763 140.208740,87.350731 140.152847,87.566315 
	C138.010406,87.670593 135.867950,87.774872 133.390488,87.737953 
z"/>
<path fill="#33A212" opacity="1.000000" stroke="none" 
	d="
M103.043213,40.561806 
	C102.816795,41.466923 102.449318,42.061741 101.972168,42.998390 
	C90.934242,36.789536 80.005997,30.238852 68.877136,23.403900 
	C70.640579,23.122719 72.604637,23.125811 74.862930,22.944923 
	C84.405502,28.591133 93.653831,34.421322 103.043213,40.561806 
z"/>
<path fill="#54DE19" opacity="1.000000" stroke="none" 
	d="
M41.239273,117.082153 
	C41.052391,119.604965 40.865509,122.127769 40.934143,124.842972 
	C41.392761,126.800514 41.595863,128.565674 41.775795,130.947830 
	C42.299583,132.423370 42.846546,133.281891 43.393509,134.140427 
	C43.849285,134.549591 44.305065,134.958755 44.913925,135.634583 
	C45.077297,136.641296 45.087585,137.381317 45.100887,138.488800 
	C41.477409,137.262436 39.419346,137.255066 38.506989,142.291458 
	C37.948360,145.375198 34.592903,147.952255 32.131035,150.805603 
	C34.115150,143.524948 36.461700,136.195541 38.726929,128.263214 
	C38.459961,127.407204 38.244469,127.182777 37.818771,126.792633 
	C37.368168,126.367371 37.097923,126.136482 36.862778,125.500626 
	C37.306450,122.388969 37.715031,119.682289 38.510269,116.985550 
	C39.677708,117.024384 40.458492,117.053268 41.239273,117.082153 
z"/>
<path fill="#5DD81C" opacity="1.000000" stroke="none" 
	d="
M124.588867,89.100571 
	C124.711517,93.027351 124.505417,97.090836 124.474762,101.496857 
	C124.670525,103.631149 124.690834,105.422913 124.542992,107.998413 
	C123.920670,111.888725 123.466515,114.995300 123.012360,118.101875 
	C122.431068,114.071983 121.887299,110.036064 121.242676,106.016335 
	C121.077309,104.985138 120.593651,104.004982 120.124283,102.522827 
	C119.587021,98.378891 119.181702,94.713501 118.776382,91.048111 
	C120.604294,90.444504 122.432213,89.840889 124.588867,89.100571 
z"/>
<path fill="#A61F1F" opacity="1.000000" stroke="none" 
	d="
M234.782959,54.607811 
	C230.180588,54.809902 225.578217,55.011990 220.235901,55.273125 
	C219.308960,55.359993 219.121948,55.387810 218.934921,55.415627 
	C218.476013,55.411732 218.017105,55.407833 217.036499,55.454910 
	C216.280685,55.593647 216.079208,55.729790 215.910370,55.914307 
	C214.902771,56.023773 213.895172,56.133244 212.505981,56.211021 
	C215.943954,54.960827 219.694855,53.386990 223.603912,52.631718 
	C226.975845,51.980225 230.527817,52.260502 234.562317,52.105991 
	C235.124435,52.083138 235.342697,52.245716 235.282806,52.544838 
	C235.076263,53.431911 234.929611,54.019859 234.782959,54.607811 
z"/>
<path fill="#146018" opacity="1.000000" stroke="none" 
	d="
M151.942383,81.721413 
	C153.153839,78.377449 150.476013,79.314278 148.889206,78.979950 
	C143.159485,77.772728 137.446518,76.485954 131.406403,75.077194 
	C131.102875,74.754044 131.120209,74.582909 131.166565,74.155441 
	C138.060837,75.021095 144.956772,75.986771 151.779221,77.326584 
	C155.570404,78.071106 154.885986,79.922462 151.942383,81.721413 
z"/>
<path fill="#58E118" opacity="1.000000" stroke="none" 
	d="
M84.162903,131.720963 
	C83.221428,131.080261 82.473694,130.132034 81.448196,129.064941 
	C81.170441,128.946060 80.920525,128.653778 80.913574,128.098495 
	C80.192062,126.389229 79.477501,125.235245 78.762932,124.081261 
	C77.824547,122.311150 76.886169,120.541046 75.818481,118.450974 
	C76.555023,117.133774 77.420868,116.136543 78.620651,115.064049 
	C80.299171,118.325172 81.768326,121.618515 82.941803,125.014030 
	C83.650665,127.065178 83.900543,129.274948 84.162903,131.720963 
z"/>
<path fill="#3A9B13" opacity="1.000000" stroke="none" 
	d="
M134.055161,53.586403 
	C127.946312,53.252148 121.677849,52.588554 115.209663,51.653526 
	C119.078842,50.906563 123.167046,49.968136 127.209114,50.136597 
	C129.477341,50.231129 131.669250,52.156544 134.055161,53.586403 
z"/>
<path fill="#B21219" opacity="1.000000" stroke="none" 
	d="
M194.051666,64.242905 
	C192.219727,69.503555 190.819595,69.986488 183.740845,67.955025 
	C185.272873,62.650730 189.719025,64.134621 194.051666,64.242905 
z"/>
<path fill="#E54345" opacity="1.000000" stroke="none" 
	d="
M211.724335,56.438072 
	C210.843567,59.674026 209.763657,62.996613 208.325256,66.155998 
	C208.015732,66.835831 206.411896,66.926384 205.265793,66.933258 
	C205.075378,65.998108 205.023438,65.418091 204.971512,64.838074 
	C207.113312,62.047478 209.255112,59.256886 211.724335,56.438072 
z"/>
<path fill="#AD1517" opacity="1.000000" stroke="none" 
	d="
M249.887085,128.756714 
	C255.667084,129.405762 261.684753,130.347137 268.016785,131.514648 
	C262.262360,130.843552 256.193542,129.946289 249.887085,128.756714 
z"/>
<path fill="#3DA40F" opacity="1.000000" stroke="none" 
	d="
M122.991035,118.411819 
	C123.466515,114.995300 123.920670,111.888725 124.554352,108.444290 
	C126.972626,113.362335 126.121872,118.198479 122.469238,122.884598 
	C122.186363,123.076836 121.941330,123.020027 121.835602,122.741188 
	C121.729866,122.462349 121.710510,121.993851 121.710510,121.993851 
	C121.752190,121.821030 121.793877,121.648216 122.082565,121.081085 
	C122.556168,120.485237 122.724289,120.243118 122.833954,119.960403 
	C122.879204,119.547523 122.924461,119.134651 122.991035,118.411819 
z"/>
<path fill="#B21219" opacity="1.000000" stroke="none" 
	d="
M200.863129,65.681625 
	C199.327591,65.685463 197.674149,65.313774 195.772858,64.666763 
	C197.265091,64.696335 199.005157,65.001213 200.863129,65.681625 
z"/>
<path fill="#B21219" opacity="1.000000" stroke="none" 
	d="
M188.564667,79.009529 
	C189.122620,80.459488 189.696701,82.279366 190.176208,84.385315 
	C189.581345,82.907410 189.081055,81.143433 188.564667,79.009529 
z"/>
<path fill="#4AB316" opacity="1.000000" stroke="none" 
	d="
M43.318329,133.860367 
	C42.846546,133.281891 42.299583,132.423370 41.868065,131.322510 
	C42.403385,131.913574 42.823265,132.746933 43.318329,133.860367 
z"/>
<path fill="#B21219" opacity="1.000000" stroke="none" 
	d="
M204.579987,65.000114 
	C205.023438,65.418091 205.075378,65.998108 205.052155,66.768280 
	C203.711502,66.832581 202.445969,66.706741 201.069702,66.309799 
	C202.035461,65.746513 203.111954,65.454338 204.579987,65.000114 
z"/>
<path fill="#45C223" opacity="1.000000" stroke="none" 
	d="
M78.793503,124.422279 
	C79.477501,125.235245 80.192062,126.389229 80.877029,127.909729 
	C80.172981,127.105263 79.498528,125.934280 78.793503,124.422279 
z"/>
<path fill="#B21219" opacity="1.000000" stroke="none" 
	d="
M185.393677,76.965637 
	C186.217346,77.067574 187.098953,77.513275 188.130722,78.220673 
	C187.337799,78.091377 186.394714,77.700394 185.393677,76.965637 
z"/>
<path fill="#A61F1F" opacity="1.000000" stroke="none" 
	d="
M235.015396,52.001720 
	C235.161301,51.429245 235.416245,50.938187 235.863770,50.244308 
	C236.056381,50.041492 236.243820,50.182888 236.236313,50.512615 
	C235.933441,51.310131 235.638062,51.777920 235.342682,52.245712 
	C235.342697,52.245716 235.124435,52.083138 235.015396,52.001720 
z"/>
<path fill="#AD1517" opacity="1.000000" stroke="none" 
	d="
M247.190353,128.053131 
	C247.134933,127.920570 247.590668,127.890556 247.789825,127.999634 
	C247.988998,128.108719 247.646515,128.308807 247.646515,128.308807 
	C247.646515,128.308807 247.245773,128.185684 247.190353,128.053131 
z"/>
<path fill="#B21219" opacity="1.000000" stroke="none" 
	d="
M182.226349,70.274246 
	C182.310989,70.331284 182.389175,70.467094 182.326019,70.506592 
	C182.262878,70.546097 182.044678,70.479355 182.044678,70.479355 
	C182.044678,70.479355 182.141708,70.217201 182.226349,70.274246 
z"/>
<path fill="#3DA40F" opacity="1.000000" stroke="none" 
	d="
M140.316223,87.600250 
	C140.208740,87.350731 140.342606,87.208763 140.704834,87.134857 
	C140.849823,87.386993 140.724609,87.555290 140.316223,87.600250 
z"/>
<path fill="#3DA40F" opacity="1.000000" stroke="none" 
	d="
M142.252594,86.603943 
	C142.195404,86.352615 142.388062,86.211617 142.821259,86.145294 
	C142.909073,86.409264 142.722626,86.574028 142.252594,86.603943 
z"/>
<path fill="#3EA905" opacity="1.000000" stroke="none" 
	d="
M38.123611,116.975601 
	C37.715031,119.682289 37.306450,122.388969 36.660526,125.746918 
	C34.962822,127.919098 33.502464,129.440018 32.042107,130.960922 
	C32.060905,130.532867 32.079708,130.104797 32.266403,129.011444 
	C32.892002,124.565544 33.349716,120.784950 33.807426,117.004349 
	C33.808723,116.560493 33.810024,116.116646 33.777344,115.002350 
	C32.491219,112.566795 31.239080,110.801682 29.986938,109.036560 
	C23.487900,102.047890 25.035435,92.819183 23.214132,84.536949 
	C22.360100,80.653313 21.853216,76.693329 20.939083,72.054153 
	C19.787159,68.949059 18.885160,66.557755 17.714460,63.454082 
	C19.738029,63.771099 20.809296,63.938927 21.880564,64.106750 
	C21.880564,64.106750 21.989223,64.010460 21.974447,64.387680 
	C22.945032,65.906563 23.930395,67.048233 24.915758,68.189903 
	C25.575497,69.897835 26.235235,71.605774 26.982483,73.977402 
	C27.361423,75.442665 27.652859,76.244247 27.944294,77.045822 
	C27.967522,77.480392 27.990749,77.914963 28.048615,79.089638 
	C28.698460,83.580070 29.313663,87.330399 29.928867,91.080727 
	C29.961964,91.503784 29.995060,91.926834 30.109299,93.006783 
	C31.439795,95.494667 32.689148,97.325653 33.938503,99.156647 
	C34.952312,100.883293 35.966118,102.609932 37.074783,105.078613 
	C37.487629,109.538963 37.805618,113.257286 38.123611,116.975601 
z"/>
<path fill="#58DC12" opacity="1.000000" stroke="none" 
	d="
M62.159760,84.016327 
	C61.258312,84.139046 60.356865,84.261765 59.235222,83.797905 
	C58.798820,81.123619 58.582611,79.035912 58.366405,76.948204 
	C62.634102,79.275330 65.050415,78.183640 65.772171,73.283882 
	C66.203926,70.352844 65.939232,67.323570 66.291466,64.374756 
	C66.488998,62.721088 67.305878,61.141407 67.843704,59.528389 
	C68.274796,59.551025 68.705894,59.573666 69.136986,59.596306 
	C69.691162,61.819916 70.245331,64.043526 70.939209,66.827705 
	C72.426399,65.603348 73.484505,64.732239 74.845718,63.611591 
	C76.434296,66.256653 77.988297,68.844154 79.526108,71.882950 
	C77.564590,71.069496 75.619270,69.804756 73.591187,68.486206 
	C73.091553,69.536911 72.163155,72.877007 71.417419,72.836708 
	C65.750961,72.530533 67.387917,77.386620 65.900482,79.954140 
	C65.609299,80.379578 65.318108,80.805008 64.678223,81.611176 
	C63.606274,82.666710 62.883015,83.341522 62.159760,84.016327 
z"/>
<path fill="#35A408" opacity="1.000000" stroke="none" 
	d="
M118.601227,90.776825 
	C119.181702,94.713501 119.587021,98.378891 119.820862,102.362732 
	C117.845352,102.762177 115.846985,103.354950 114.297195,102.766434 
	C112.996574,102.272530 111.206383,100.227730 111.387581,99.170227 
	C112.117889,94.907997 113.528412,90.762314 114.687698,86.573586 
	C115.187302,86.547867 115.686905,86.522148 116.186508,86.496429 
	C116.933029,87.832802 117.679550,89.169174 118.601227,90.776825 
z"/>
<path fill="#5BE212" opacity="1.000000" stroke="none" 
	d="
M21.879013,63.738621 
	C20.809296,63.938927 19.738029,63.771099 17.714460,63.454082 
	C18.885160,66.557755 19.787159,68.949059 20.824650,71.668343 
	C19.807835,71.207245 18.252256,70.668976 17.576981,69.583221 
	C15.331197,65.972305 13.427265,62.150341 11.343908,58.436420 
	C9.164303,54.550922 9.996113,52.492554 14.053572,50.972458 
	C16.707760,55.178383 19.292610,59.274437 21.879013,63.738621 
z"/>
<path fill="#3DAB06" opacity="1.000000" stroke="none" 
	d="
M66.259903,80.016876 
	C67.387917,77.386620 65.750961,72.530533 71.417419,72.836708 
	C72.163155,72.877007 73.091553,69.536911 73.591187,68.486206 
	C75.619270,69.804756 77.564590,71.069496 79.764694,72.126190 
	C82.041054,71.943375 84.062614,71.968613 86.363937,72.273849 
	C85.775993,73.076530 84.908287,73.599220 84.040581,74.121918 
	C77.324432,73.827454 73.747246,78.741318 69.391983,83.010071 
	C68.295006,82.177193 67.457161,81.128395 66.259903,80.016876 
z"/>
<path fill="#5BE212" opacity="1.000000" stroke="none" 
	d="
M38.510265,116.985550 
	C37.805618,113.257286 37.487629,109.538963 37.166210,105.407265 
	C38.778934,106.008415 40.395084,107.022949 42.833691,108.553780 
	C42.833691,106.085205 42.833691,104.117035 42.833691,101.693810 
	C44.096054,102.108620 45.229492,102.481071 46.663658,102.933861 
	C45.194057,107.521210 43.423729,112.028229 41.446339,116.808701 
	C40.458492,117.053268 39.677708,117.024384 38.510265,116.985550 
z"/>
<path fill="#3FAD04" opacity="1.000000" stroke="none" 
	d="
M58.294426,76.541748 
	C58.582611,79.035912 58.798820,81.123619 59.004906,83.612488 
	C57.225681,82.973763 55.456573,81.933868 53.361809,80.541252 
	C53.089817,78.816925 53.143482,77.445320 53.197151,76.073715 
	C53.492653,74.652946 53.788155,73.232185 54.257927,71.122650 
	C55.271313,68.661438 56.110424,66.888992 56.949535,65.116539 
	C57.034081,66.465828 57.118626,67.815117 57.254379,69.844864 
	C57.536026,71.024170 57.766464,71.523033 57.996902,72.021889 
	C58.072083,73.393021 58.147266,74.764153 58.294426,76.541748 
z"/>
<path fill="#5BE212" opacity="1.000000" stroke="none" 
	d="
M32.020542,131.353180 
	C33.502464,129.440018 34.962822,127.919098 36.625427,126.151886 
	C37.097923,126.136482 37.368168,126.367371 37.839996,127.059624 
	C38.063873,127.698044 38.086166,127.875107 38.108459,128.052170 
	C35.279667,133.606781 32.450874,139.161377 29.364529,144.961151 
	C30.070974,140.719345 31.034977,136.232407 32.020542,131.353180 
z"/>
<path fill="#5AE210" opacity="1.000000" stroke="none" 
	d="
M52.829544,76.156357 
	C53.143482,77.445320 53.089817,78.816925 53.046139,80.601707 
	C52.718159,82.747665 52.380188,84.480453 51.844463,86.892059 
	C51.443031,88.716331 51.239353,89.861771 51.035675,91.007217 
	C50.842659,91.259094 50.637749,91.500893 50.245510,91.893303 
	C48.589748,86.437866 47.609509,80.897362 52.829544,76.156357 
z"/>
<path fill="#49D008" opacity="1.000000" stroke="none" 
	d="
M97.160797,137.270035 
	C97.269775,138.700500 97.330055,139.754669 97.419281,141.315033 
	C93.448219,136.457657 93.304192,131.776657 97.112099,128.492340 
	C97.112099,131.541382 97.112099,134.217545 97.160797,137.270035 
z"/>
<path fill="#57DD0F" opacity="1.000000" stroke="none" 
	d="
M84.382828,74.293465 
	C84.908287,73.599220 85.775993,73.076530 86.797577,72.284775 
	C90.151169,71.666954 93.350868,71.318207 96.550568,70.969460 
	C93.118111,74.501945 89.226936,75.752853 84.382828,74.293465 
z"/>
<path fill="#5BE212" opacity="1.000000" stroke="none" 
	d="
M30.139151,90.726181 
	C29.313663,87.330399 28.698460,83.580070 28.091194,79.413353 
	C33.038342,81.959770 30.726913,86.357002 30.139151,90.726181 
z"/>
<path fill="#5BDD13" opacity="1.000000" stroke="none" 
	d="
M33.514175,117.184479 
	C33.349716,120.784950 32.892002,124.565544 32.260979,128.690094 
	C30.159176,124.920265 30.852316,121.061089 33.514175,117.184479 
z"/>
<path fill="#5DD81C" opacity="1.000000" stroke="none" 
	d="
M124.081161,74.561554 
	C129.895401,76.318504 126.368248,80.761177 126.273903,84.674744 
	C125.447083,81.667763 124.811554,78.303299 124.081161,74.561554 
z"/>
<path fill="#5BE212" opacity="1.000000" stroke="none" 
	d="
M28.601837,146.037933 
	C26.194344,148.602600 23.432621,151.198273 20.361622,153.928207 
	C22.784098,151.397949 25.515852,148.733444 28.601837,146.037933 
z"/>
<path fill="#58E118" opacity="1.000000" stroke="none" 
	d="
M76.863373,112.881935 
	C74.448997,111.593468 70.398865,110.761772 73.711220,106.155289 
	C74.927124,108.155785 75.869026,110.346954 76.863373,112.881935 
z"/>
<path fill="#3DAB06" opacity="1.000000" stroke="none" 
	d="
M70.194641,101.738800 
	C69.380875,99.782051 68.798859,97.618484 68.186417,95.052521 
	C70.288673,96.490158 74.785660,97.550186 70.194641,101.738800 
z"/>
<path fill="#5AE210" opacity="1.000000" stroke="none" 
	d="
M56.841835,64.827591 
	C56.110424,66.888992 55.271313,68.661438 54.260109,70.751709 
	C54.133595,68.992241 54.115124,66.908173 54.333340,64.849182 
	C54.353077,64.662956 55.897671,64.638329 56.841835,64.827591 
z"/>
<path fill="#5BE212" opacity="1.000000" stroke="none" 
	d="
M33.927284,98.780090 
	C32.689148,97.325653 31.439795,95.494667 30.154303,93.321968 
	C31.384132,94.788017 32.650101,96.595779 33.927284,98.780090 
z"/>
<path fill="#5BDD13" opacity="1.000000" stroke="none" 
	d="
M30.019896,109.393127 
	C31.239080,110.801682 32.491219,112.566795 33.760422,114.669830 
	C32.535942,113.255058 31.294397,111.502380 30.019896,109.393127 
z"/>
<path fill="#5BE212" opacity="1.000000" stroke="none" 
	d="
M24.907581,67.821411 
	C23.930395,67.048233 22.945032,65.906563 21.921970,64.434143 
	C22.889317,65.219910 23.894361,66.336418 24.907581,67.821411 
z"/>
<path fill="#5AE210" opacity="1.000000" stroke="none" 
	d="
M48.761440,96.051315 
	C48.708225,96.983627 48.321774,97.951393 47.686359,99.115372 
	C47.767666,98.236649 48.097935,97.161713 48.761440,96.051315 
z"/>
<path fill="#5BE212" opacity="1.000000" stroke="none" 
	d="
M28.108246,76.809288 
	C27.652859,76.244247 27.361423,75.442665 27.057169,74.316635 
	C27.453630,74.852371 27.862913,75.712563 28.108246,76.809288 
z"/>
<path fill="#58DC12" opacity="1.000000" stroke="none" 
	d="
M58.112614,71.829971 
	C57.766464,71.523033 57.536026,71.024170 57.302650,70.247787 
	C57.609253,70.526199 57.918789,71.082130 58.112614,71.829971 
z"/>
<path fill="#5DD81C" opacity="1.000000" stroke="none" 
	d="
M121.573944,122.155876 
	C121.710510,121.993851 121.729866,122.462349 121.718109,122.696320 
	C121.706352,122.930298 121.337173,122.988174 121.150620,123.005814 
	C121.103485,122.775948 121.261253,122.540771 121.573944,122.155876 
z"/>
<path fill="#5DD81C" opacity="1.000000" stroke="none" 
	d="
M122.676331,120.113815 
	C122.724289,120.243118 122.556168,120.485237 122.153946,120.824158 
	C122.136215,120.712814 122.316353,120.481369 122.676331,120.113815 
z"/>
<path fill="#58E118" opacity="1.000000" stroke="none" 
	d="
M79.062973,114.851830 
	C78.986954,114.960495 78.960327,114.496590 78.950157,114.264717 
	C79.160843,114.231544 79.227180,114.468323 79.062973,114.851830 
z"/>
<path fill="#C20C0F" opacity="1.000000" stroke="none" 
	d="
M271.444855,74.430107 
	C285.782715,84.140724 286.912964,99.023422 273.534302,109.561989 
	C268.092865,113.848289 261.458740,116.620438 255.367264,120.081520 
	C255.135895,119.650108 254.904541,119.218704 254.673187,118.787300 
	C259.902588,115.287666 265.545105,112.267143 270.275513,108.188744 
	C280.145813,99.678886 281.007385,92.042175 274.245453,80.923775 
	C273.209106,79.219742 272.074463,77.575493 271.039124,75.383110 
	C271.210266,74.718460 271.327576,74.574280 271.444855,74.430107 
z"/>
<path fill="#E54345" opacity="1.000000" stroke="none" 
	d="
M235.282806,52.544838 
	C235.638062,51.777920 235.933441,51.310131 236.329987,50.583370 
	C238.696060,48.695068 240.749573,46.519840 243.267807,45.544849 
	C249.373703,43.180775 252.292709,45.547810 252.056732,52.588249 
	C251.995926,53.014687 252.001816,52.976353 251.673431,53.019222 
	C250.554794,53.488197 249.764572,53.914299 248.974335,54.340401 
	C248.710495,54.526218 248.422699,54.660778 247.625183,54.639851 
	C245.780014,54.700161 244.420609,54.864708 243.061188,55.029251 
	C240.518387,55.060787 237.975586,55.092323 235.107880,54.865837 
	C234.929611,54.019859 235.076263,53.431911 235.282806,52.544838 
z"/>
<path fill="#C20F0F" opacity="1.000000" stroke="none" 
	d="
M216.709488,64.736832 
	C219.139893,58.680637 221.411682,57.492641 230.223221,58.335510 
	C225.586517,60.830650 221.709579,62.916935 217.382095,64.977951 
	C216.931549,64.952675 216.709488,64.736832 216.709488,64.736832 
z"/>
<path fill="#A61F1F" opacity="1.000000" stroke="none" 
	d="
M243.444763,54.992371 
	C244.420609,54.864708 245.780014,54.700161 247.390228,54.685020 
	C246.370117,54.874775 245.099213,54.915131 243.444763,54.992371 
z"/>
<path fill="#A61F1F" opacity="1.000000" stroke="none" 
	d="
M249.299988,54.235527 
	C249.764572,53.914299 250.554794,53.488197 251.691010,53.029839 
	C251.233200,53.375275 250.429413,53.752960 249.299988,54.235527 
z"/>
<path fill="#E54345" opacity="1.000000" stroke="none" 
	d="
M218.998886,55.539391 
	C219.121948,55.387810 219.308960,55.359993 219.779221,55.342545 
	C219.729263,55.456326 219.396057,55.559738 218.998886,55.539391 
z"/>
<path fill="#C20F0F" opacity="1.000000" stroke="none" 
	d="
M217.041656,65.061539 
	C216.950104,65.101967 216.748413,65.033539 216.628113,64.850967 
	C216.709488,64.736832 216.931549,64.952675 217.041656,65.061539 
z"/>
<path fill="#C20C0F" opacity="1.000000" stroke="none" 
	d="
M269.748871,74.266678 
	C269.879150,73.958328 270.009399,73.649971 270.124359,73.624649 
	C269.988983,74.027351 269.868927,74.147011 269.748871,74.266678 
z"/>
<path fill="#E54345" opacity="1.000000" stroke="none" 
	d="
M216.083557,55.864395 
	C216.079208,55.729790 216.280685,55.593647 216.693192,55.482742 
	C216.685318,55.610268 216.480377,55.728565 216.083557,55.864395 
z"/>
<path fill="#C20C0F" opacity="1.000000" stroke="none" 
	d="
M270.293274,73.732407 
	C270.722504,73.718239 270.949768,73.901367 271.302063,74.268311 
	C271.327576,74.574280 271.210266,74.718460 270.904053,75.068924 
	C270.441803,75.113022 270.205688,74.907997 269.877808,74.463409 
	C269.868927,74.147011 269.988983,74.027351 270.293274,73.732407 
z"/>
<path fill="#54DE19" opacity="1.000000" stroke="none" 
	d="
M41.068279,198.858521 
	C40.312618,198.490982 39.828091,197.900131 39.115871,197.134277 
	C45.188446,193.386292 47.377922,188.699829 44.979946,181.133850 
	C41.476841,170.081024 35.274376,160.980026 23.610718,156.270264 
	C25.645491,154.561234 28.033251,152.977417 30.710022,151.236053 
	C29.582731,155.802582 32.003597,158.424591 35.422310,161.500076 
	C43.279659,168.568588 48.638958,177.583069 48.267971,188.363937 
	C48.147556,191.863037 43.769833,195.215607 41.068279,198.858521 
z"/>
<path fill="#54DE19" opacity="1.000000" stroke="none" 
	d="
M45.121262,139.328766 
	C49.374928,140.146912 49.534889,143.770935 50.046288,147.581970 
	C47.069168,146.029129 44.446808,143.867722 45.121262,139.328766 
z"/>
<path fill="#54DE19" opacity="1.000000" stroke="none" 
	d="
M51.877789,163.267700 
	C52.627022,165.398560 53.174435,167.843109 53.742676,170.671173 
	C50.757042,169.209000 50.588776,166.570541 51.877789,163.267700 
z"/>
<path fill="#54DE19" opacity="1.000000" stroke="none" 
	d="
M53.907127,177.250702 
	C54.450176,178.670883 54.787991,180.396561 55.147720,182.506775 
	C54.680389,181.112961 54.191143,179.334564 53.907127,177.250702 
z"/>
<path fill="#54DE19" opacity="1.000000" stroke="none" 
	d="
M51.080513,158.120422 
	C51.452000,158.442703 51.673008,158.955276 51.929058,159.747772 
	C51.619415,159.455368 51.274727,158.883041 51.080513,158.120422 
z"/>
<path fill="#FA4D4D" opacity="1.000000" stroke="none" 
	d="
M287.808105,145.172256 
	C287.771881,145.063675 287.867706,144.822495 288.083130,144.677124 
	C288.202759,144.772949 287.940186,145.039673 287.808105,145.172256 
z"/>
<path fill="#4AB316" opacity="1.000000" stroke="none" 
	d="
M38.298393,128.055450 
	C38.086166,127.875107 38.063873,127.698044 38.020355,127.253990 
	C38.244469,127.182777 38.459961,127.407204 38.756828,127.865776 
	C38.868050,128.071259 38.488331,128.058716 38.298393,128.055450 
z"/>
<path fill="#3FAD04" opacity="1.000000" stroke="none" 
	d="
M51.328220,90.928070 
	C51.239353,89.861771 51.443031,88.716331 51.834343,87.273270 
	C53.907867,88.475952 54.062469,89.796913 51.328220,90.928070 
z"/>
<path fill="#3DAB06" opacity="1.000000" stroke="none" 
	d="
M62.478344,83.967850 
	C62.883015,83.341522 63.606274,82.666710 64.607536,81.861664 
	C64.189339,82.460732 63.493134,83.190048 62.478344,83.967850 
z"/>
<path fill="#5CE513" opacity="1.000000" stroke="none" 
	d="
M138.968369,62.265072 
	C145.660187,70.129456 154.575684,70.656349 161.837646,63.642109 
	C163.398331,62.134655 165.037552,60.708504 166.871475,59.527927 
	C164.101089,67.798782 156.828735,71.485092 147.624283,69.724945 
	C144.698486,69.165459 141.781570,68.559494 138.443787,67.969963 
	C133.119858,67.407974 128.436401,67.724503 124.239044,70.821739 
	C122.048920,72.437843 119.693527,71.937462 119.156670,69.277901 
	C118.334976,65.207298 117.071419,60.608437 118.229248,56.938572 
	C119.275986,53.620808 123.683273,51.979038 127.554672,54.257225 
	C130.683624,56.098503 133.490433,58.487175 136.721878,60.813385 
	C137.003601,60.993752 137.000061,61.000336 137.216064,61.200573 
	C137.944183,61.688896 138.456268,61.976986 138.968369,62.265072 
z"/>
<path fill="#3DA40F" opacity="1.000000" stroke="none" 
	d="
M138.771820,62.038338 
	C138.456268,61.976986 137.944183,61.688896 137.218964,61.199226 
	C137.528992,61.268963 138.052124,61.540287 138.771820,62.038338 
z"/>
</svg>